<?xml version="1.0" standalone="no"?>
<!DOCTYPE svg PUBLIC "-//W3C//DTD SVG 20010904//EN"
 "http://www.w3.org/TR/2001/REC-SVG-20010904/DTD/svg10.dtd">
<svg version="1.0" xmlns="http://www.w3.org/2000/svg"
 width="225.000000pt" height="225.000000pt" viewBox="0 0 225.000000 225.000000"
 preserveAspectRatio="xMidYMid meet">
<metadata>
Created by potrace 1.10, written by Peter Selinger 2001-2011
</metadata>
<g transform="translate(0.000000,225.000000) scale(0.100000,-0.100000)"
fill="#000000" stroke="none">
<path d="M1050 2242 c0 -12 -58 -36 -80 -33 -10 1 -11 -1 -3 -6 6 -5 15 -21
19 -38 6 -26 8 -27 14 -10 4 11 3 26 -2 32 -11 14 -9 15 57 32 29 8 41 7 47
-2 5 -8 8 -7 8 5 0 21 -22 36 -28 19 -3 -9 -7 -9 -18 0 -9 7 -14 8 -14 1z"/>
<path d="M1202 2220 c-6 -11 -12 -43 -12 -72 0 -56 12 -89 24 -69 4 6 2 11 -3
11 -7 0 -11 23 -11 55 0 43 5 58 22 75 15 14 18 20 7 20 -8 0 -20 -9 -27 -20z"/>
<path d="M1276 2203 c-4 -9 -3 -20 2 -25 6 -6 10 1 10 16 0 30 -3 32 -12 9z"/>
<path d="M1365 2200 c-3 -6 1 -7 9 -4 18 7 21 14 7 14 -6 0 -13 -4 -16 -10z"/>
<path d="M1400 2186 c0 -9 5 -16 10 -16 6 0 10 -8 10 -17 1 -10 7 -29 15 -43
l14 -25 0 35 c1 24 -7 42 -24 59 -20 18 -25 20 -25 7z"/>
<path d="M1080 2148 c0 -49 5 -47 13 5 3 20 2 37 -4 37 -5 0 -9 -19 -9 -42z"/>
<path d="M1326 2174 c-4 -9 -4 -33 -1 -53 4 -27 3 -31 -4 -16 -9 19 -10 19
-10 -3 -1 -33 23 -23 27 11 2 15 8 27 13 27 14 0 7 42 -7 47 -6 2 -14 -4 -18
-13z"/>
<path d="M873 2173 c16 -3 42 -19 58 -36 30 -33 41 -19 14 17 -8 11 -15 16
-15 11 0 -5 -5 -4 -12 3 -7 7 -26 11 -42 11 l-31 -2 28 -4z"/>
<path d="M1018 2175 c-7 -7 14 -81 26 -92 5 -4 6 7 1 27 -4 19 -7 43 -7 53 1
17 -9 22 -20 12z"/>
<path d="M1468 2173 c6 -2 18 -2 25 0 6 3 1 5 -13 5 -14 0 -19 -2 -12 -5z"/>
<path d="M1235 2138 c0 -25 4 -32 23 -33 13 -1 22 4 22 13 0 8 -6 12 -15 8
-11 -4 -15 1 -15 19 0 14 -4 25 -8 25 -4 0 -8 -14 -7 -32z"/>
<path d="M1492 2126 c-6 -14 -9 -32 -6 -40 3 -8 1 -17 -5 -21 -12 -7 -15 -35
-3 -35 9 0 32 49 32 70 0 9 6 22 13 29 8 9 8 12 0 7 -6 -3 -13 -1 -15 5 -2 6
-9 0 -16 -15z"/>
<path d="M880 2121 c0 -5 7 -14 15 -21 8 -7 15 -19 15 -26 0 -8 5 -14 11 -14
5 0 7 5 4 10 -3 6 4 10 17 11 23 0 23 0 -2 10 -14 6 -28 17 -33 25 -9 15 -27
19 -27 5z"/>
<path d="M1000 2105 c0 -8 5 -15 10 -15 6 0 10 7 10 15 0 8 -4 15 -10 15 -5 0
-10 -7 -10 -15z"/>
<path d="M1100 2106 c0 -8 -6 -17 -12 -19 -8 -3 -6 -6 5 -6 11 -1 17 6 17 19
0 11 -2 20 -5 20 -3 0 -5 -6 -5 -14z"/>
<path d="M1380 2106 c0 -9 -6 -16 -12 -16 -14 0 11 -20 25 -20 11 0 9 38 -3
45 -5 3 -10 -1 -10 -9z"/>
<path d="M1559 2099 c-9 -17 -8 -25 5 -37 15 -15 16 -13 16 21 0 42 -5 46 -21
16z"/>
<path d="M720 2085 c1 -26 2 -28 11 -12 8 14 8 22 0 30 -8 8 -11 3 -11 -18z"/>
<path d="M820 2104 c0 -6 11 -23 24 -37 42 -46 41 -60 -6 -87 -24 -14 -45 -25
-48 -25 -3 0 -17 -10 -30 -23 -29 -26 -60 -36 -95 -30 -20 4 -23 2 -14 -8 6
-7 18 -10 27 -7 15 6 15 4 4 -10 -13 -15 -16 -15 -43 5 -16 12 -29 27 -29 32
-1 6 -9 21 -20 34 -18 22 -19 22 -54 5 -37 -17 -47 -33 -21 -33 7 0 18 8 24
18 9 16 11 16 28 -1 16 -15 16 -19 3 -27 -8 -5 -19 -11 -24 -13 -5 -2 -6 -9
-1 -16 6 -11 10 -10 17 3 9 17 48 23 48 7 0 -5 9 -11 20 -14 11 -3 20 -10 20
-17 0 -6 -4 -8 -10 -5 -5 3 -10 1 -10 -5 0 -8 -6 -8 -21 0 -15 9 -24 8 -35 -1
-16 -13 -19 -34 -4 -24 6 3 10 1 10 -5 0 -6 5 -8 11 -4 8 5 8 9 -1 14 -8 5 -8
10 -2 14 13 8 22 -17 12 -34 -4 -7 -15 -10 -25 -7 -13 6 -15 3 -10 -13 4 -14
2 -20 -9 -20 -8 0 -18 -4 -21 -10 -4 -6 1 -7 12 -3 14 5 12 0 -7 -19 -18 -19
-27 -23 -33 -15 -5 7 -6 3 -2 -10 4 -14 0 -32 -9 -45 -9 -12 -16 -18 -17 -13
0 6 -5 -1 -11 -15 -6 -14 -10 -28 -10 -32 1 -5 -3 -8 -9 -8 -6 0 -8 -7 -5 -16
3 -8 2 -12 -4 -9 -6 3 -10 0 -10 -7 0 -9 -3 -9 -10 2 -13 20 -12 33 2 24 7 -5
8 -3 3 5 -14 24 -28 -5 -14 -30 9 -17 9 -24 0 -27 -6 -2 -11 -8 -11 -13 0 -6
4 -7 10 -4 13 8 13 7 -12 -66 -29 -85 -31 -301 -4 -373 10 -25 14 -51 10 -57
-4 -7 -3 -9 4 -5 7 4 9 -10 7 -46 -4 -52 -3 -52 10 -23 9 21 14 25 14 12 1
-11 11 -33 23 -50 19 -26 19 -30 4 -24 -10 4 -15 3 -11 -3 3 -6 13 -10 21 -10
10 0 13 -8 9 -27 -4 -22 -3 -24 3 -8 8 19 9 18 23 -5 7 -14 12 -28 11 -32 -1
-4 9 -24 23 -44 14 -20 25 -41 25 -46 0 -5 5 -6 11 -3 7 5 5 13 -5 24 -9 10
-16 21 -16 26 0 4 10 -5 22 -21 51 -69 78 -90 108 -88 17 1 33 -2 36 -7 3 -5
9 -7 14 -4 12 7 50 -26 50 -43 0 -7 -4 -11 -9 -7 -5 3 -12 1 -16 -5 -3 -5 -43
-10 -88 -10 -45 0 -100 -5 -121 -10 -30 -6 -44 -5 -62 7 -15 10 -24 11 -24 4
0 -6 7 -11 15 -11 8 0 14 -3 14 -8 -4 -26 2 -30 29 -16 16 8 57 14 102 14 90
1 150 13 166 35 7 9 19 13 30 9 12 -4 8 3 -11 20 -16 14 -41 29 -55 32 -14 4
-36 13 -49 21 -13 8 -20 10 -17 4 12 -18 -10 -12 -27 7 -10 10 -14 22 -10 27
5 4 3 5 -3 2 -20 -12 -111 94 -166 193 -76 137 -108 367 -74 522 18 81 58 173
107 246 59 86 81 108 201 207 33 27 117 65 131 59 8 -3 18 -1 22 5 4 7 -1 9
-12 5 -16 -5 -16 -4 -2 5 21 14 211 63 217 56 12 -11 -15 -24 -73 -34 -33 -6
-66 -18 -75 -27 -13 -14 -12 -14 13 -5 34 13 47 14 47 3 0 -17 -72 -32 -94
-20 -21 10 -21 10 0 -10 l22 -21 41 21 c22 11 41 24 41 28 0 5 14 12 32 15 18
4 41 19 52 32 19 25 21 25 115 18 200 -15 348 -86 513 -247 21 -21 38 -40 38
-44 0 -3 13 -23 28 -43 16 -20 35 -51 43 -68 8 -18 17 -33 21 -33 5 0 8 -11 8
-24 0 -14 5 -28 10 -31 6 -4 8 -11 5 -16 -4 -5 -1 -9 4 -9 19 0 12 50 -14 90
-14 22 -25 44 -25 50 0 5 -4 10 -9 10 -5 0 -11 14 -15 31 -4 22 -10 29 -20 26
-10 -4 -13 -1 -9 8 3 8 -2 18 -12 21 -9 4 -14 13 -11 21 3 8 2 12 -3 9 -5 -3
-14 1 -21 10 -18 20 3 45 22 26 9 -9 8 -12 -6 -12 -9 0 -15 -4 -11 -10 11 -18
33 2 39 36 4 19 11 34 17 34 6 0 7 4 4 10 -10 16 -46 -12 -39 -32 4 -13 1 -16
-9 -12 -8 3 -18 1 -22 -5 -3 -6 -11 -11 -17 -11 -6 0 -3 9 7 20 18 20 18 21
-9 49 -31 32 -68 48 -59 25 3 -8 11 -14 17 -14 7 0 20 -6 30 -13 16 -12 16
-14 -10 -26 -25 -11 -26 -10 -14 4 11 13 10 15 -1 10 -8 -3 -33 13 -57 35 -28
26 -48 37 -59 33 -11 -4 -14 -3 -9 5 6 10 -4 16 -25 14 -4 -1 -5 12 -4 28 2
20 -1 27 -11 23 -8 -3 -14 -1 -14 5 0 16 -38 21 -44 5 -3 -8 -1 -11 4 -8 5 3
22 -1 37 -9 24 -13 25 -15 8 -16 -17 0 -17 -2 -5 -10 8 -5 11 -10 5 -10 -5 0
-17 5 -25 10 -11 7 -11 10 -2 10 7 0 10 5 7 11 -4 6 -12 8 -19 6 -6 -3 -20 1
-31 9 -10 8 -33 14 -51 14 -18 0 -36 5 -39 10 -3 6 -27 10 -53 11 -35 0 -42 3
-27 9 12 5 -14 7 -69 5 -49 -1 -101 1 -117 5 -28 8 -42 -3 -16 -13 6 -3 1 -6
-13 -6 -64 -2 -132 -20 -124 -32 3 -5 -3 -6 -12 -2 -11 4 -13 8 -6 11 7 2 12
8 12 14 0 6 -6 8 -14 5 -9 -4 -16 4 -20 24 -3 16 -12 29 -20 29 -8 0 -20 8
-25 18 -6 9 -11 12 -11 6z m900 -262 c0 -4 -9 -13 -20 -20 -24 -15 -26 -9 -4
12 17 18 24 20 24 8z"/>
<path d="M850 2100 c0 -5 5 -10 11 -10 5 0 7 5 4 10 -3 6 -8 10 -11 10 -2 0
-4 -4 -4 -10z"/>
<path d="M673 2076 c10 -8 16 -19 15 -26 -2 -7 3 -15 10 -17 8 -3 10 1 5 14
-9 26 -24 43 -37 43 -6 0 -3 -7 7 -14z"/>
<path d="M770 2063 c0 -21 3 -24 9 -14 5 8 7 20 4 28 -8 21 -13 15 -13 -14z"/>
<path d="M1624 2073 c0 -10 -4 -17 -11 -16 -7 2 -10 -4 -7 -12 8 -20 24 -19
39 2 10 13 10 19 -1 30 -17 17 -22 16 -20 -4z"/>
<path d="M1678 2083 c7 -3 16 -2 19 1 4 3 -2 6 -13 5 -11 0 -14 -3 -6 -6z"/>
<path d="M1248 2063 c12 -2 30 -2 40 0 9 3 -1 5 -23 4 -22 0 -30 -2 -17 -4z"/>
<path d="M1352 2055 c-11 -12 -10 -15 3 -15 8 0 15 7 15 15 0 18 -2 18 -18 0z"/>
<path d="M1400 2050 c0 -5 5 -10 10 -10 6 0 10 5 10 10 0 6 -4 10 -10 10 -5 0
-10 -4 -10 -10z"/>
<path d="M1536 2045 c-3 -9 -2 -13 4 -10 6 3 10 -3 10 -14 0 -12 7 -21 15 -21
13 0 13 4 -2 28 -9 15 -18 28 -19 30 -1 2 -4 -4 -8 -13z"/>
<path d="M626 2041 c-4 -6 -1 -11 6 -11 9 0 9 -3 -2 -10 -12 -8 -11 -10 7 -10
12 0 23 -5 25 -12 3 -7 7 -8 10 -3 8 14 -38 60 -46 46z"/>
<path d="M720 2021 c0 -17 5 -31 10 -31 6 0 10 11 10 24 0 14 -4 28 -10 31 -6
4 -10 -7 -10 -24z"/>
<path d="M1693 2029 c-4 -16 -8 -17 -14 -7 -6 9 -9 9 -9 1 0 -22 23 -26 37 -8
16 23 17 35 2 35 -6 0 -13 -9 -16 -21z"/>
<path d="M816 2031 c-4 -5 -15 -8 -26 -6 -11 2 -20 0 -20 -5 0 -4 21 -8 46 -8
25 0 44 1 42 2 -2 1 -10 7 -20 14 -10 8 -18 9 -22 3z"/>
<path d="M1750 2027 c0 -10 8 -17 18 -17 9 0 13 4 7 8 -5 4 -13 11 -17 16 -5
5 -8 2 -8 -7z"/>
<path d="M546 2021 c-3 -5 1 -11 9 -14 9 -4 12 -1 8 9 -6 16 -10 17 -17 5z"/>
<path d="M525 1990 c-18 -8 -17 -9 8 -9 16 -1 26 3 22 9 -3 6 -7 10 -8 9 -1 0
-11 -4 -22 -9z"/>
<path d="M776 1983 c-6 -14 -5 -15 5 -6 7 7 10 15 7 18 -3 3 -9 -2 -12 -12z"/>
<path d="M814 1984 c-18 -14 -18 -15 4 -4 12 6 22 13 22 15 0 8 -5 6 -26 -11z"/>
<path d="M1165 1993 c6 -6 27 -16 48 -23 31 -10 41 -10 50 0 9 10 8 11 -7 6
-11 -4 -22 -2 -26 4 -3 5 -22 13 -40 16 -24 5 -32 3 -25 -3z"/>
<path d="M1670 1981 c0 -6 4 -13 10 -16 6 -3 7 1 4 9 -7 18 -14 21 -14 7z"/>
<path d="M1726 1983 c-3 -3 -3 -10 0 -14 7 -12 34 -11 34 0 0 11 -26 22 -34
14z"/>
<path d="M480 1970 c0 -5 5 -10 10 -10 6 0 10 5 10 10 0 6 -4 10 -10 10 -5 0
-10 -4 -10 -10z"/>
<path d="M620 1975 c0 -13 33 -55 44 -55 6 0 6 4 -3 9 -9 6 -10 11 -2 15 17
11 13 29 -4 22 -8 -3 -15 -1 -15 4 0 6 -4 10 -10 10 -5 0 -10 -2 -10 -5z"/>
<path d="M1095 1969 c-11 -17 0 -20 21 -4 17 13 17 14 2 15 -9 0 -20 -5 -23
-11z"/>
<path d="M1155 1960 c3 -5 13 -10 21 -10 8 0 12 5 9 10 -3 6 -13 10 -21 10 -8
0 -12 -4 -9 -10z"/>
<path d="M1269 1953 c-10 -11 -10 -14 -1 -9 6 4 12 3 12 -3 0 -6 12 -8 30 -4
19 3 30 1 30 -6 0 -6 -6 -11 -14 -11 -8 0 -16 -7 -20 -15 -3 -8 -1 -15 4 -15
5 0 15 7 24 15 8 8 24 15 34 15 28 0 52 10 52 22 0 8 -16 6 -60 -10 -13 -5
-13 -3 -2 10 10 13 10 18 1 24 -7 4 -9 3 -6 -2 3 -6 -10 -11 -30 -11 -25 -1
-32 2 -22 8 12 7 11 9 -2 9 -9 0 -23 -8 -30 -17z"/>
<path d="M1572 1958 c5 -15 28 -23 28 -10 0 5 -7 13 -16 16 -10 4 -14 1 -12
-6z"/>
<path d="M734 1945 c4 -13 2 -13 -14 -5 -29 16 -48 11 -20 -5 14 -8 19 -14 11
-15 -8 0 -12 -3 -9 -6 10 -9 48 16 48 31 0 8 -5 15 -11 15 -6 0 -9 -7 -5 -15z"/>
<path d="M1202 1955 c4 -4 0 -14 -10 -22 -9 -8 -12 -12 -5 -9 6 4 14 2 18 -4
3 -6 0 -13 -9 -16 -12 -5 -13 -10 -4 -30 6 -13 18 -24 26 -24 12 0 12 4 -3 20
-13 14 -15 24 -8 31 11 11 63 2 63 -12 0 -5 5 -9 11 -9 8 0 9 4 0 13 -6 8 -7
18 -3 22 4 5 2 5 -5 1 -19 -10 -62 4 -57 19 3 7 -1 16 -8 21 -7 4 -10 4 -6 -1z"/>
<path d="M1781 1952 c3 -19 -2 -26 -10 -13 -6 9 -8 5 -8 -13 0 -31 7 -33 30
-6 21 25 21 26 2 34 -8 3 -14 2 -14 -2z"/>
<path d="M465 1940 c-3 -5 -1 -10 4 -10 6 0 11 5 11 10 0 6 -2 10 -4 10 -3 0
-8 -4 -11 -10z"/>
<path d="M1040 1930 c-6 -11 -19 -20 -29 -20 -13 0 -18 -6 -16 -17 2 -10 4
-21 4 -25 1 -12 41 -10 41 2 0 5 -6 7 -14 4 -22 -9 -27 11 -5 24 11 7 19 8 19
2 0 -5 7 -7 16 -3 11 4 12 9 5 16 -18 18 -12 28 9 17 15 -8 19 -18 16 -33 -3
-12 -3 -16 0 -9 3 6 11 12 17 12 7 0 21 8 32 17 18 14 18 15 2 9 -10 -3 -28 1
-40 9 -29 20 -44 19 -57 -5z"/>
<path d="M1128 1943 c7 -3 16 -2 19 1 4 3 -2 6 -13 5 -11 0 -14 -3 -6 -6z"/>
<path d="M1696 1943 c-12 -13 -5 -23 15 -23 17 0 20 -5 17 -25 -5 -24 5 -34
16 -16 15 23 -30 82 -48 64z"/>
<path d="M1840 1942 c0 -4 10 -13 23 -21 22 -14 22 -14 3 8 -20 22 -26 25 -26
13z"/>
<path d="M437 1924 c-3 -4 -2 -16 4 -26 8 -15 14 -17 22 -9 8 8 7 15 -4 26 -8
9 -18 13 -22 9z"/>
<path d="M835 1908 c-16 -6 -35 -15 -42 -20 -7 -5 -18 -6 -24 -2 -7 4 -9 3 -6
-3 4 -6 -5 -14 -21 -18 -30 -7 -72 -42 -72 -59 0 -6 12 2 25 17 14 15 25 23
25 17 0 -7 7 -5 16 4 8 9 24 16 34 16 10 0 20 3 22 8 2 4 23 17 48 29 48 23
45 29 -5 11z"/>
<path d="M1430 1910 c0 -5 5 -10 10 -10 6 0 10 5 10 10 0 6 -4 10 -10 10 -5 0
-10 -4 -10 -10z"/>
<path d="M1810 1895 c0 -8 7 -15 15 -15 8 0 15 7 15 15 0 8 -7 15 -15 15 -8 0
-15 -7 -15 -15z"/>
<path d="M845 1875 c-39 -24 -39 -25 -12 -25 15 0 36 9 47 20 38 38 22 40 -35
5z"/>
<path d="M1120 1890 c0 -5 4 -10 10 -10 5 0 23 -13 38 -30 24 -24 37 -30 72
-30 26 0 51 7 62 17 24 22 25 -2 1 -36 -15 -22 -15 -25 1 -37 19 -13 50 -8 40
7 -3 5 -10 9 -15 9 -6 0 -7 -5 -3 -12 4 -6 3 -8 -4 -5 -5 4 -8 16 -5 27 4 15
11 19 26 14 19 -6 19 -5 4 17 -12 17 -14 26 -5 36 8 10 6 13 -9 13 -11 0 -23
-3 -27 -7 -4 -5 -30 -13 -57 -19 -49 -11 -49 -11 -74 22 -25 32 -55 45 -55 24z"/>
<path d="M474 1872 c-8 -13 -8 -20 2 -29 10 -10 13 -10 17 0 3 8 14 4 32 -13
l28 -25 -18 28 c-9 15 -26 27 -37 27 -17 0 -18 3 -8 15 7 8 8 15 4 15 -5 0
-14 -8 -20 -18z"/>
<path d="M918 1876 c-10 -7 -14 -17 -10 -21 4 -5 -2 -5 -13 -1 -16 6 -18 5 -7
-6 10 -10 17 -7 38 15 26 28 21 36 -8 13z"/>
<path d="M1359 1888 c-13 -45 5 -82 40 -83 11 0 20 -4 18 -10 -1 -5 -12 -10
-24 -10 -13 1 -23 -3 -23 -7 0 -4 5 -8 10 -8 21 0 25 -2 42 -17 15 -14 16 -13
11 9 -3 13 -1 18 4 12 5 -7 16 -8 28 -3 19 7 19 8 -2 8 -25 1 -31 16 -10 24
10 4 10 6 0 6 -7 1 -13 9 -14 19 0 10 -3 12 -6 5 -6 -16 -45 -17 -60 -2 -8 8
-8 20 -3 35 6 15 6 24 0 24 -6 0 -10 -1 -11 -2z"/>
<path d="M1470 1880 c0 -5 9 -10 20 -10 10 0 24 -9 30 -19 16 -31 12 -36 -10
-11 -12 14 -25 20 -36 16 -20 -8 -12 -17 29 -34 23 -10 29 -9 34 3 3 9 3 19
-1 22 -3 3 2 12 12 20 15 13 15 13 -4 4 -17 -8 -25 -7 -34 4 -14 17 -40 20
-40 5z"/>
<path d="M955 1860 c3 -5 1 -10 -5 -10 -6 0 -8 -5 -4 -11 4 -8 9 -7 15 2 12
19 11 29 -2 29 -5 0 -7 -4 -4 -10z"/>
<path d="M1104 1861 c8 -12 -18 -21 -43 -14 -12 3 -21 1 -21 -6 0 -6 10 -11
23 -11 18 0 19 -2 7 -10 -23 -15 6 -12 30 3 17 10 22 9 30 -3 7 -11 10 -11 10
-2 0 20 -19 52 -31 52 -6 0 -8 -4 -5 -9z"/>
<path d="M1864 1858 c-3 -4 -16 -8 -30 -8 -17 0 -24 -5 -24 -19 0 -11 5 -23
12 -27 7 -5 9 -2 5 9 -3 8 0 18 8 21 7 2 16 -2 19 -10 9 -24 7 -36 -5 -28 -7
4 -10 -1 -7 -12 2 -10 10 -20 18 -22 12 -2 14 7 12 43 l-4 45 35 0 c30 0 37
-4 48 -32 12 -31 12 -32 17 -9 2 16 -2 28 -15 35 -25 15 -83 25 -89 14z"/>
<path d="M412 1844 c-8 -14 -5 -21 16 -31 34 -18 44 -3 16 25 -21 22 -23 22
-32 6z"/>
<path d="M1570 1841 c0 -5 8 -11 18 -15 9 -3 24 -9 32 -12 12 -4 12 -3 2 4 -8
5 -12 13 -10 17 1 4 -7 10 -19 11 -13 2 -23 0 -23 -5z"/>
<path d="M501 1814 c0 -11 3 -14 6 -6 3 7 2 16 -1 19 -3 4 -6 -2 -5 -13z"/>
<path d="M1900 1798 c0 -25 3 -29 10 -18 6 10 10 11 10 3 0 -7 7 -13 16 -13
14 0 14 1 0 16 -9 8 -16 22 -16 30 0 8 -4 14 -10 14 -5 0 -10 -15 -10 -32z"/>
<path d="M720 1805 c-7 -9 -10 -18 -7 -22 8 -7 37 15 37 28 0 14 -16 11 -30
-6z"/>
<path d="M906 1813 c-4 -4 -19 -9 -34 -11 -15 -2 -29 -7 -32 -11 -10 -14 -39
-20 -43 -8 -2 7 -8 9 -12 5 -15 -15 8 -28 43 -24 20 2 31 2 24 -1 -6 -2 -10
-9 -6 -14 3 -5 1 -9 -5 -9 -5 0 -13 5 -17 11 -4 7 -10 7 -16 1 -13 -13 -60 7
-51 21 3 6 1 7 -5 3 -7 -4 -12 -11 -12 -15 0 -12 48 -31 64 -25 27 10 29 -18
2 -45 -14 -14 -36 -38 -47 -53 -11 -16 -27 -28 -35 -28 -20 0 32 77 57 85 24
8 25 25 1 25 -10 0 -28 7 -40 16 -12 8 -22 11 -22 5 0 -12 -38 -26 -62 -22
-18 2 -33 -32 -22 -51 6 -9 3 -9 -9 1 -9 7 -14 18 -10 24 3 6 1 7 -6 3 -6 -4
-9 -12 -6 -17 4 -5 -1 -9 -9 -9 -8 0 -17 -9 -21 -20 -7 -21 -73 -80 -91 -80
-14 0 -35 -68 -23 -76 5 -3 9 3 9 14 0 10 16 32 37 48 44 35 93 86 93 96 0 5
5 8 11 8 6 0 9 -6 6 -14 -6 -15 15 -40 25 -31 3 3 11 -2 18 -10 11 -13 11 -19
-3 -32 -13 -14 -19 -14 -32 -3 -13 11 -18 11 -28 0 -10 -10 -9 -12 6 -7 9 4
17 2 17 -4 0 -6 -8 -9 -17 -7 -33 6 -21 33 15 33 20 0 32 5 32 13 0 7 -4 11
-8 8 -4 -2 -14 -1 -21 4 -15 9 -51 -17 -51 -38 0 -7 -4 -11 -8 -8 -5 3 -23 -8
-40 -23 -17 -16 -33 -27 -35 -24 -3 2 -7 -10 -9 -27 -3 -17 0 -34 5 -37 17
-10 67 -11 73 -2 3 5 10 9 17 9 7 0 5 -6 -4 -16 -14 -13 -28 -19 -59 -23 -8
-1 -40 -57 -40 -71 0 -6 5 -8 10 -5 6 4 8 10 5 15 -8 13 15 24 26 13 11 -11 1
-45 -12 -38 -4 3 -15 -5 -24 -19 -9 -14 -24 -26 -33 -28 -14 -3 -17 -15 -17
-60 0 -31 3 -54 8 -51 4 2 10 -3 13 -11 3 -9 10 -14 14 -11 5 3 12 0 16 -6 4
-8 9 -7 15 2 4 8 4 16 -2 20 -6 3 -3 14 8 27 20 24 49 17 33 -8 -7 -11 -10
-12 -10 -2 0 7 -4 10 -10 7 -12 -8 -12 -16 0 -35 9 -13 11 -13 21 0 8 12 9 12
6 -5 -2 -11 -8 -19 -13 -18 -6 1 -8 -11 -6 -28 2 -16 9 -29 14 -29 6 0 8 6 5
14 -3 8 0 22 8 32 9 14 10 24 3 38 -8 14 -5 25 9 44 17 23 61 42 47 21 -3 -5
0 -9 6 -9 9 0 9 -14 1 -59 -1 -3 -7 4 -15 14 -8 11 -12 24 -9 28 3 5 9 3 14
-4 6 -10 9 -10 9 -2 0 19 -19 25 -33 11 -19 -21 -19 -38 0 -38 15 0 16 -2 3
-10 -12 -7 -12 -12 -2 -22 9 -9 12 -9 12 0 0 7 9 12 20 12 13 0 20 7 20 20 0
11 5 20 11 20 5 0 7 -4 4 -10 -3 -6 1 -7 9 -4 9 3 16 8 16 11 0 3 -20 29 -45
57 -43 51 -55 85 -37 114 12 18 55 -25 49 -49 -4 -15 0 -19 18 -19 26 0 38
-28 23 -54 -9 -17 -3 -36 12 -36 4 0 6 8 4 18 -2 9 0 24 6 32 8 12 13 13 30 2
12 -7 20 -8 20 -2 0 5 -5 10 -11 10 -6 0 -9 7 -5 15 3 8 1 15 -4 15 -6 0 -10
-4 -10 -10 0 -5 -7 -10 -15 -10 -8 0 -15 7 -15 15 0 9 -9 15 -21 15 -32 0 -19
34 16 41 27 6 26 7 -12 8 -28 1 -50 8 -63 21 -24 24 -42 26 -33 3 5 -13 2 -15
-12 -10 -14 6 -15 5 -7 -6 7 -8 7 -18 2 -27 -13 -21 -13 -23 9 -46 18 -20 18
-21 -4 -46 -15 -17 -27 -23 -36 -18 -10 7 -6 12 14 21 27 12 37 29 17 29 -5 0
-10 7 -10 16 0 9 -5 12 -12 8 -7 -4 -10 -4 -6 1 4 4 3 16 -3 26 -7 13 -6 19 1
19 7 0 7 6 -1 21 -14 28 0 42 42 41 26 -1 30 2 26 20 -4 12 2 28 14 41 11 12
17 27 14 35 -3 8 0 10 6 6 6 -4 14 -3 18 2 3 5 20 16 36 24 28 13 29 14 8 18
-18 3 -21 7 -14 20 5 9 10 22 11 27 1 6 7 8 13 6 7 -2 18 -4 25 -4 7 0 10 -7
7 -15 -43 -112 -21 -245 55 -342 30 -38 30 -38 7 -44 -37 -10 -40 -7 -33 27 4
23 3 28 -4 17 -5 -8 -10 -23 -10 -32 0 -13 -8 -18 -32 -18 -37 0 -28 -14 10
-16 15 -1 36 -2 47 -3 22 -1 32 -36 14 -46 -5 -4 -9 0 -9 8 0 8 -7 17 -15 21
-18 7 -20 -5 -2 -23 10 -11 6 -13 -21 -7 -21 3 -31 2 -27 -4 3 -6 15 -10 26
-10 14 0 21 -9 26 -30 7 -40 19 -46 27 -15 6 24 36 36 36 14 0 -5 5 -7 10 -4
20 12 9 25 -20 25 -30 0 -40 13 -19 25 5 4 9 17 7 28 -4 32 5 32 74 3 23 -9
25 -12 10 -17 -15 -6 -13 -8 8 -17 19 -8 21 -11 7 -11 -10 -1 -25 6 -33 14
-12 12 -12 15 -2 15 21 0 -13 20 -35 20 -17 0 -17 -1 -3 -16 9 -8 14 -20 10
-25 -3 -5 9 -12 26 -16 34 -6 47 -24 34 -45 -4 -7 -9 -22 -10 -35 -2 -13 -6
-33 -10 -45 -6 -22 -6 -22 19 -5 15 9 33 17 40 17 19 0 49 -35 40 -45 -5 -4
-3 -5 4 -2 8 5 8 15 0 36 -6 17 -15 27 -19 25 -9 -6 -38 14 -38 25 0 3 18 7
39 8 l39 3 4 -53 c2 -28 4 -53 3 -54 0 -1 -27 -4 -59 -7 -51 -5 -57 -4 -46 9
7 9 10 18 6 22 -3 4 -13 -2 -21 -13 -14 -19 -14 -19 -16 1 -1 11 -2 26 -2 33
1 6 -3 12 -8 12 -6 0 -5 8 1 19 16 32 -1 58 -34 52 -5 -1 -13 4 -17 11 -7 10
-9 10 -9 -2 0 -9 6 -24 13 -35 17 -25 38 -105 27 -105 -10 0 -20 26 -20 53 0
17 -3 19 -9 8 -10 -15 -31 -7 -31 13 0 7 -9 21 -20 31 -11 10 -20 29 -20 42 0
12 -4 23 -9 23 -13 0 -7 -45 8 -63 9 -12 5 -12 -24 1 -19 9 -35 19 -35 22 0 3
-16 4 -35 2 -21 -3 -35 0 -35 7 0 6 6 11 13 11 9 0 8 3 -2 9 -11 7 -11 9 0 14
11 4 10 6 -1 6 -9 1 -21 -4 -28 -11 -17 -17 -23 -6 -7 15 11 15 17 17 34 7 12
-6 25 -8 30 -5 5 3 12 -3 15 -13 7 -21 56 -48 56 -32 0 6 -4 10 -10 10 -5 0
-10 6 -10 13 0 16 -67 69 -74 58 -4 -5 0 -12 6 -15 7 -3 3 -3 -10 0 -15 4 -31
-1 -44 -13 -12 -10 -18 -13 -15 -6 4 6 3 14 -3 18 -5 3 -11 -2 -11 -12 -1 -10
-3 -29 -5 -43 -10 -75 -9 -117 4 -113 6 3 12 13 12 22 0 12 2 13 8 3 7 -9 13
-7 28 9 10 12 18 24 17 28 -2 3 2 6 7 5 6 -1 30 -2 55 -2 36 -2 50 -8 78 -37
19 -19 39 -35 44 -35 6 0 13 -7 17 -15 9 -26 -17 -17 -56 19 -50 46 -102 55
-136 24 -14 -13 -22 -17 -18 -10 4 6 3 12 -2 12 -18 0 -35 -57 -23 -78 6 -11
7 -23 3 -27 -4 -5 -1 -5 6 -1 8 5 11 17 8 32 -8 32 52 79 89 70 14 -4 25 -11
25 -17 0 -6 5 -7 11 -3 8 5 8 1 0 -14 -9 -17 -7 -21 12 -27 13 -4 17 -8 9 -12
-6 -2 -10 -9 -7 -13 3 -5 -6 -32 -20 -59 l-25 -50 48 -7 c30 -4 55 -15 69 -30
22 -24 19 -29 -11 -18 -9 3 -13 11 -9 18 3 6 3 8 -2 4 -4 -4 -14 -3 -22 4 -7
6 -16 8 -19 5 -3 -3 13 -18 36 -33 34 -23 43 -25 50 -14 5 9 5 19 -1 27 -8 9
-1 11 33 6 75 -9 91 -8 188 16 85 20 102 22 171 11 46 -6 85 -7 100 -2 13 5
30 7 37 5 7 -3 26 0 42 6 32 11 40 1 17 -21 -8 -7 -12 -21 -9 -32 4 -15 1 -18
-12 -13 -9 4 -15 3 -11 -2 10 -18 -20 -17 -39 0 -10 10 -23 16 -29 12 -5 -3 2
-13 17 -22 14 -8 26 -19 26 -23 0 -11 53 14 63 29 4 7 16 13 25 14 11 0 9 4
-8 10 -23 10 -24 11 -7 23 10 8 15 20 11 30 -4 10 -1 16 9 16 8 0 18 -6 20
-12 3 -8 6 -6 6 4 1 18 59 35 86 24 8 -3 15 -3 15 0 0 2 -10 9 -22 14 -18 7
-19 9 -5 9 9 1 17 6 17 12 0 7 -9 9 -22 5 -13 -3 -27 -6 -33 -6 -5 0 -4 -4 4
-9 9 -6 4 -10 -17 -13 l-31 -4 28 32 c16 17 34 55 41 84 9 36 16 50 26 46 9
-3 14 1 14 13 0 10 3 34 6 52 5 25 4 31 -5 24 -6 -6 -12 -23 -13 -38 -5 -54
-18 -25 -18 38 0 41 4 65 11 65 8 0 7 5 -1 15 -23 27 -3 27 24 0 26 -26 34
-41 16 -30 -19 12 -10 -14 12 -35 12 -11 16 -20 10 -20 -15 0 -16 -76 -1 -86
8 -5 8 -8 0 -14 -9 -5 -8 -10 4 -20 13 -11 15 -8 16 21 1 19 3 45 5 59 5 39
-28 119 -62 152 -29 29 -31 36 -32 100 -1 59 1 68 14 57 9 -7 14 -8 14 -1 0 6
-8 16 -17 21 -15 9 -16 12 -4 20 10 6 23 4 40 -7 14 -10 22 -11 18 -5 -5 7 -3
21 2 30 6 10 11 13 11 7 0 -17 50 -14 50 3 0 8 4 12 9 8 5 -3 12 3 14 12 4 14
5 13 6 -4 0 -13 -4 -23 -11 -23 -6 0 -4 -8 6 -19 16 -18 16 -18 -15 -15 -17 2
-38 -1 -48 -7 -14 -9 -14 -10 2 -5 11 3 20 0 24 -10 7 -18 5 -19 -24 -28 -17
-5 -23 -3 -23 7 0 8 -7 21 -16 28 -15 12 -16 11 -9 -11 4 -14 10 -31 12 -37 3
-7 0 -13 -6 -13 -6 0 -11 -7 -11 -15 0 -8 5 -15 10 -15 6 0 10 7 10 15 0 8 9
15 20 15 11 0 20 5 20 10 0 6 11 10 25 10 14 0 25 -4 25 -10 0 -5 4 -10 10
-10 5 0 7 6 4 13 -3 8 2 20 10 27 9 7 13 16 10 21 -3 5 0 9 5 9 19 0 10 -27
-28 -86 -15 -22 -48 -22 -63 0 -5 7 -8 7 -8 -2 0 -7 -4 -10 -10 -7 -5 3 -10
-3 -10 -14 0 -11 5 -23 10 -26 6 -3 10 1 10 9 0 9 5 16 10 16 6 0 9 -20 8 -45
l-1 -44 -35 44 c-19 25 -38 45 -42 45 -21 0 -16 -17 15 -52 19 -21 50 -69 67
-106 19 -39 34 -60 36 -50 2 9 10 19 18 22 18 7 18 -3 -1 -24 -11 -12 -12 -24
-6 -45 7 -23 10 -26 12 -10 1 11 1 29 0 40 -1 15 1 17 10 8 16 -16 19 -56 5
-65 -7 -5 -5 -8 5 -8 10 0 20 -13 24 -32 8 -33 8 -33 12 -6 2 14 -5 48 -16 75
-10 26 -22 61 -26 78 -6 29 -7 29 -21 11 -14 -19 -14 -19 -14 2 0 12 5 22 11
22 7 0 9 12 5 33 -6 35 16 88 28 68 4 -6 3 -11 -2 -11 -5 0 -9 -18 -9 -40 0
-21 4 -37 8 -34 26 16 50 -69 25 -87 -4 -4 -3 -10 3 -13 6 -4 11 -3 11 3 0 5
10 12 23 14 l22 4 -22 2 c-17 1 -23 7 -23 24 0 32 14 49 33 41 10 -3 17 -1 17
6 0 6 -4 8 -10 5 -5 -3 -10 -2 -10 4 0 5 4 12 8 15 11 7 7 62 -4 56 -5 -3 -8
-13 -6 -23 3 -26 -21 -58 -36 -48 -7 4 -13 29 -14 54 0 26 -4 47 -8 47 -4 0
-10 10 -13 22 -6 22 16 58 35 58 13 0 9 -17 -8 -35 -13 -12 -14 -19 -5 -28 6
-6 11 -7 11 -3 0 5 6 4 13 -1 8 -7 17 -4 28 8 16 16 15 19 -17 53 -34 36 -43
56 -25 56 5 0 11 -6 14 -12 2 -7 4 1 4 18 0 27 -4 31 -23 30 -17 -1 -20 -4
-12 -14 17 -20 2 -25 -16 -6 -14 13 -16 29 -12 73 3 31 3 47 0 36 -7 -23 -33
-55 -46 -55 -17 0 -7 29 12 35 11 3 20 11 20 16 0 6 -4 8 -9 5 -5 -3 -11 1
-15 9 -3 8 -12 12 -21 9 -18 -7 -20 7 -3 24 9 9 8 12 -5 12 -21 0 -23 28 -2
36 8 4 12 10 9 16 -3 5 3 4 15 -4 26 -16 27 -28 4 -29 -10 0 -13 -3 -6 -5 7
-3 10 -11 7 -18 -4 -9 2 -13 18 -11 37 4 61 -20 62 -60 1 -31 2 -33 14 -18 8
10 18 27 24 38 10 18 9 18 -5 7 -13 -11 -15 -10 -10 10 3 16 2 19 -5 10 -15
-21 -29 7 -28 55 1 23 -2 39 -6 37 -5 -3 -8 -1 -8 4 0 4 -9 18 -20 30 -12 12
-19 22 -16 22 3 0 -1 12 -9 27 -8 15 -12 30 -9 35 8 13 -6 48 -19 48 -8 0 -8
-3 0 -11 6 -6 9 -26 6 -45 -4 -21 -2 -34 5 -34 6 0 9 -6 7 -13 -3 -7 7 -26 23
-43 15 -17 26 -36 24 -42 -2 -7 0 -12 6 -12 5 0 9 -7 9 -15 0 -23 -12 -18 -25
10 -6 14 -16 25 -22 25 -5 0 -9 6 -8 12 2 7 -3 13 -9 12 -42 -3 -45 -5 -39
-19 5 -13 0 -15 -28 -10 -32 6 -33 5 -29 -19 4 -21 1 -26 -13 -26 -11 0 -26 5
-34 11 -12 8 -9 9 13 5 30 -7 34 -2 15 18 -18 18 -48 8 -49 -18 -1 -18 -2 -18
-6 -2 -3 10 0 23 6 29 16 16 14 27 -3 21 -10 -4 -14 0 -12 13 2 13 10 17 27
15 24 -3 23 -3 -4 16 -15 10 -24 21 -21 24 3 4 -6 5 -20 4 -14 -2 -23 1 -20 5
9 15 61 10 74 -6 21 -25 31 -17 16 13 -16 30 -54 36 -94 14 -12 -7 -28 -10
-34 -6 -7 5 -8 3 -3 -6 6 -10 4 -12 -9 -7 -10 4 -26 7 -37 7 -10 0 -19 5 -19
10 0 6 12 10 27 10 19 0 24 3 16 11 -15 15 -74 14 -84 -2 -7 -11 -12 -10 -24
9 -9 12 -20 20 -25 17 -4 -3 -13 2 -20 10 -7 8 -19 15 -28 15 -8 0 -21 8 -29
18 -8 9 -12 11 -8 4 5 -9 -7 -11 -52 -7 -104 11 -118 13 -137 21 -15 5 -17 4
-11 -6 6 -10 2 -12 -18 -8 -16 3 -28 0 -31 -8 -3 -8 -14 -14 -24 -14 -11 0
-25 -7 -32 -15 -7 -8 -17 -15 -23 -15 -6 0 -7 3 -4 7 4 3 1 13 -6 21 -10 13
-8 14 14 10 17 -3 36 2 50 13 18 14 20 19 8 19 -9 0 -19 -3 -23 -7z m312 -43
c17 -7 32 -16 32 -21 0 -5 7 -9 17 -9 9 0 34 -19 57 -41 l40 -42 -34 -28 c-34
-29 -57 -38 -45 -19 3 6 1 10 -6 10 -7 0 -5 8 7 22 10 12 13 18 6 14 -7 -4
-19 -2 -27 4 -8 7 -15 10 -15 7 0 -4 -16 4 -35 17 -97 66 -230 28 -268 -76
-24 -69 -30 -99 -27 -163 3 -84 5 -99 14 -113 4 -7 5 -20 2 -28 -3 -9 -1 -12
4 -9 6 3 10 -1 10 -10 0 -10 5 -13 12 -9 7 5 9 2 5 -9 -4 -12 -2 -14 11 -10
15 6 15 5 -1 -14 -17 -20 -17 -20 2 -19 11 0 27 10 35 21 11 14 15 16 16 6 0
-8 3 -12 6 -9 3 3 -1 16 -8 27 -11 18 -11 23 1 30 9 6 10 11 2 15 -15 10 -14
56 2 57 10 0 10 2 0 6 -7 2 -13 11 -13 18 0 7 6 16 13 19 10 5 10 7 0 12 -7 3
-13 9 -13 13 0 10 152 8 168 -2 8 -6 12 -40 12 -111 l0 -104 34 2 c33 1 86 40
73 53 -9 8 -27 -7 -27 -22 0 -9 -6 -12 -16 -8 -28 10 25 50 64 47 46 -3 47 10
5 42 -40 31 -60 37 -68 24 -3 -5 4 -7 15 -5 29 6 25 -17 -12 -66 -52 -67 -57
-63 -57 43 0 51 -1 98 -2 103 -1 6 -1 13 0 18 1 6 -178 11 -196 5 -5 -2 -7
-49 -7 -106 2 -114 -6 -120 -47 -34 -18 35 -23 63 -22 121 0 99 16 153 58 200
19 21 33 40 30 43 -2 2 10 4 28 4 18 1 43 4 57 8 14 4 39 2 55 -4 27 -11 29
-13 13 -24 -10 -7 -18 -16 -18 -20 0 -11 18 -6 35 10 18 19 29 12 31 -19 3
-51 5 -57 14 -57 6 0 10 7 10 15 0 8 -4 15 -10 15 -5 0 -7 7 -3 17 6 14 9 13
25 -7 10 -13 23 -30 28 -39 7 -14 10 -14 28 2 10 10 26 15 35 12 20 -8 32 28
17 55 -6 12 -9 26 -6 33 2 7 5 4 5 -5 1 -10 6 -18 12 -18 6 0 9 7 5 15 -3 9 0
15 10 15 8 0 12 -4 9 -10 -3 -5 12 -9 39 -8 24 0 49 -2 55 -6 15 -9 1 -38 -15
-32 -37 15 -49 18 -35 8 11 -8 9 -11 -8 -17 -26 -8 -42 2 -22 14 10 7 9 9 -3
14 -19 7 -28 -6 -20 -27 6 -14 24 -21 47 -17 5 1 5 -4 1 -10 -4 -7 -2 -10 7
-7 8 3 13 11 11 17 -1 6 5 11 13 11 8 0 15 -9 15 -20 0 -11 6 -20 13 -20 12 0
-32 -39 -45 -40 -13 0 -9 28 5 33 14 5 -29 -2 -58 -9 -16 -4 -15 -2 4 9 34 20
5 29 -32 10 -15 -8 -32 -11 -37 -8 -6 3 -10 2 -10 -3 0 -11 84 -43 117 -45 12
0 19 -5 16 -9 -2 -5 1 -15 7 -23 15 -19 37 -21 23 -2 -15 18 -12 45 5 52 7 3
26 -4 42 -15 32 -23 40 -25 40 -9 0 5 -3 8 -8 5 -4 -2 -16 2 -27 10 -22 16 -8
18 29 4 22 -8 28 -6 41 18 9 15 14 19 11 10 -3 -10 -1 -18 5 -18 6 0 -3 -11
-18 -25 -15 -13 -23 -25 -17 -25 6 0 17 7 24 15 7 8 16 12 21 9 10 -6 -9 -28
-29 -35 -10 -3 -7 -10 9 -24 15 -14 21 -16 17 -5 -4 14 13 40 26 40 3 0 6 -11
6 -25 0 -14 -4 -25 -10 -25 -5 0 -10 -4 -10 -10 0 -5 8 -10 18 -10 14 0 15 -2
2 -10 -10 -6 -17 -5 -23 6 -7 12 -12 13 -23 3 -8 -6 -14 -19 -14 -27 0 -13 -2
-14 -12 -3 -11 10 -9 15 6 26 18 14 18 16 2 40 -18 27 -55 47 -93 50 -24 2
-31 -9 -13 -20 22 -14 10 -35 -20 -35 l-30 0 0 -75 c0 -46 -4 -75 -11 -75 -5
0 -8 -4 -5 -9 4 -5 -3 -7 -15 -4 -12 3 -27 21 -35 39 -18 44 -74 131 -74 116
0 -7 -5 -12 -11 -12 -7 0 -9 9 -6 22 4 13 0 29 -10 40 -8 10 -13 26 -10 38 3
11 1 18 -4 14 -5 -3 -9 -15 -9 -27 -1 -22 -1 -22 -15 -3 -22 29 -18 13 9 -39
17 -32 21 -47 13 -50 -36 -11 -38 -14 -6 -10 33 5 37 3 43 -20 3 -13 22 -40
41 -59 19 -20 35 -40 35 -46 0 -5 5 -10 10 -10 6 0 -15 -26 -47 -57 -54 -54
-81 -72 -126 -87 -17 -5 -18 -16 -16 -99 1 -50 7 -98 13 -106 8 -11 8 -13 0
-8 -11 6 -29 -21 -21 -30 10 -9 47 -11 47 -2 0 6 5 7 11 3 16 -9 80 -15 100
-8 10 2 20 20 23 39 4 19 14 38 22 43 20 11 2 62 -23 63 -11 0 -13 3 -5 6 6 2
10 9 7 14 -4 5 2 6 11 2 10 -4 20 0 26 11 5 9 13 14 19 11 5 -4 9 -1 9 4 0 6
-9 11 -21 11 -19 0 -19 1 -4 16 20 20 24 16 32 -30 4 -24 2 -36 -6 -36 -6 0
-11 5 -11 11 0 5 -5 7 -11 3 -6 -3 -8 -17 -4 -33 14 -54 14 -62 -3 -68 -20 -7
-32 -23 -32 -40 0 -7 7 -10 15 -7 8 4 15 13 15 21 0 8 4 12 9 9 9 -6 31 36 31
60 0 8 -4 12 -10 9 -5 -3 -10 1 -10 10 0 12 5 15 16 11 13 -5 16 2 14 46 -4
98 -1 135 11 118 12 -16 12 -18 -5 38 -5 13 -3 22 3 22 6 0 11 8 11 18 0 14
-2 15 -10 2 -9 -13 -10 -13 -11 0 -1 8 0 20 1 25 1 6 2 40 1 78 l-2 67 42 0
c39 0 41 -2 37 -25 -3 -13 -2 -22 2 -20 4 2 7 -86 8 -196 1 -173 -2 -209 -19
-264 -24 -80 -74 -124 -159 -142 -29 -6 -147 -5 -167 1 -24 8 -35 38 -21 57 7
10 8 9 3 -6 -4 -14 -3 -17 4 -10 8 8 5 23 -9 50 l-21 40 5 -37 c2 -21 3 -38 0
-38 -2 0 -13 19 -25 41 -11 23 -30 44 -41 47 -14 3 -16 7 -7 12 7 5 2 7 -14 7
-14 -1 -23 -5 -21 -8 2 -4 -2 -9 -9 -12 -10 -4 -12 3 -9 24 2 16 -1 35 -7 43
-13 16 -11 66 4 66 5 0 3 5 -5 10 -16 10 -36 -13 -25 -30 4 -6 -5 -10 -20 -10
-14 0 -24 4 -21 8 2 4 -4 9 -15 9 -15 1 -18 -1 -11 -10 8 -9 3 -12 -14 -13
-23 -2 -24 -1 -9 16 8 9 13 23 10 31 -10 28 9 40 43 28 17 -6 37 -9 44 -6 14
5 -4 13 -83 41 -49 18 -131 87 -127 108 2 7 8 17 13 21 6 5 4 7 -5 4 -8 -2
-14 -10 -12 -16 6 -29 -21 6 -44 54 -19 42 -24 70 -24 129 0 66 10 101 23 79
2 -5 2 -1 -1 7 -2 8 -5 28 -6 44 -2 26 -1 27 11 10 13 -18 13 -17 11 3 -2 12
2 21 7 20 6 -1 9 -6 7 -12 -2 -5 2 -4 10 3 11 11 10 14 -2 22 -11 7 -3 20 40
64 30 31 58 56 63 56 5 0 23 6 40 14 18 8 41 17 52 20 33 8 197 -2 233 -14z
m145 -50 c-5 -19 -23 -29 -23 -12 0 7 20 32 26 32 1 0 0 -9 -3 -20z m-619 -9
c3 -5 -1 -14 -9 -21 -7 -6 -11 -18 -9 -25 4 -11 -3 -13 -30 -12 -44 3 -54 13
-22 21 14 3 30 15 36 26 11 21 25 26 34 11z m-89 -71 c-3 -5 -11 -10 -16 -10
-6 0 -7 5 -4 10 3 6 11 10 16 10 6 0 7 -4 4 -10z m45 0 c0 -5 -7 -10 -16 -10
-8 0 -12 5 -9 10 3 6 10 10 16 10 5 0 9 -4 9 -10z m-95 -100 c32 0 40 -16 12
-24 -14 -4 -26 0 -34 10 -10 13 -12 13 -18 -6 -6 -20 -7 -20 -20 -3 -13 18 -1
38 17 27 4 -3 8 1 9 8 0 10 2 10 6 1 2 -7 15 -13 28 -13z m55 0 c0 -5 -2 -10
-4 -10 -3 0 -8 5 -11 10 -3 6 -1 10 4 10 6 0 11 -4 11 -10z m-122 -32 c-3 -7
-13 -15 -24 -17 -16 -3 -17 -1 -5 13 16 19 34 21 29 4z m1007 -8 c3 -5 1 -10
-4 -10 -6 0 -11 5 -11 10 0 6 2 10 4 10 3 0 8 -4 11 -10z m-955 -9 c0 -5 -10
-15 -22 -23 -25 -15 -58 -13 -58 4 0 6 9 8 20 5 10 -3 24 1 31 9 13 16 29 19
29 5z m990 -15 c0 -8 5 -16 11 -18 8 -3 8 -10 -2 -26 -18 -28 -25 -28 -33 2
-3 14 -14 26 -24 29 -14 3 -13 6 8 15 34 15 40 14 40 -2z m143 -112 c9 -10 -4
-34 -19 -34 -16 0 -16 2 -8 24 6 17 16 20 27 10z m-1207 -57 c5 -1 8 -8 6 -14
-2 -7 2 -13 8 -13 5 0 10 -4 10 -8 0 -4 -8 -8 -19 -8 -12 0 -17 6 -13 18 2 10
-1 18 -7 18 -6 0 -10 -3 -10 -7 1 -5 1 -15 0 -23 -1 -12 -3 -13 -10 -1 -6 9
-11 10 -15 2 -8 -13 -36 -15 -36 -3 0 4 14 13 30 19 18 7 30 18 30 30 0 14 2
15 9 5 4 -8 12 -14 17 -15z m815 9 c5 3 9 1 9 -5 0 -5 -9 -9 -20 -8 -21 1 -25
9 -13 21 4 4 9 2 11 -3 2 -6 8 -9 13 -5z m479 -42 c0 -8 -4 -12 -10 -9 -5 3
-10 13 -10 21 0 8 5 12 10 9 6 -3 10 -13 10 -21z m-361 -54 c-1 -48 -4 -62
-19 -70 -10 -5 -34 -32 -54 -59 -35 -47 -36 -52 -26 -93 18 -80 15 -88 -31
-88 -78 0 -97 24 -104 132 l-5 73 46 19 c44 18 92 58 141 119 37 46 52 36 52
-33z m261 32 c23 15 33 7 24 -16 -5 -14 -9 -15 -16 -4 -7 9 -8 7 -5 -10 3 -14
1 -20 -6 -15 -6 4 -8 0 -4 -10 4 -10 2 -17 -5 -17 -6 0 -4 -8 5 -18 19 -20 23
-37 7 -27 -5 3 -10 -3 -10 -14 0 -12 -5 -21 -11 -21 -6 0 -9 7 -5 15 3 8 0 15
-7 16 -9 0 -9 2 0 6 8 3 11 14 7 29 -3 13 -1 30 4 37 7 8 7 18 2 27 -6 8 -9
20 -9 25 0 6 3 5 6 -2 3 -10 9 -10 23 -1z m-1220 -19 c0 -15 2 -14 16 3 14 18
15 18 4 -3 -6 -13 -14 -23 -19 -23 -4 0 -13 -10 -20 -22 -11 -23 -12 -23 -7
-1 2 12 -2 24 -10 27 -8 3 -14 11 -14 17 0 8 4 8 15 -1 12 -10 15 -10 15 4 0
9 5 16 10 16 6 0 10 -8 10 -17z m510 7 c0 -5 -5 -10 -11 -10 -5 0 -7 5 -4 10
3 6 8 10 11 10 2 0 4 -4 4 -10z m-217 -140 c3 -11 1 -18 -4 -14 -5 3 -9 12 -9
20 0 20 7 17 13 -6z m-173 -39 c0 -11 -5 -23 -10 -26 -6 -4 -8 -11 -5 -16 11
-16 0 -10 -18 12 -17 19 -17 20 0 17 12 -2 17 2 15 15 -2 9 2 17 8 17 5 0 10
-9 10 -19z m250 -39 c0 -15 -2 -15 -10 -2 -13 20 -13 33 0 25 6 -3 10 -14 10
-23z m60 -12 c0 -5 -5 -10 -11 -10 -5 0 -7 5 -4 10 3 6 8 10 11 10 2 0 4 -4 4
-10z m470 -14 c0 -11 -19 -15 -25 -6 -3 5 1 10 9 10 9 0 16 -2 16 -4z m-620
-56 c0 -5 -4 -10 -10 -10 -5 0 -10 5 -10 10 0 6 5 10 10 10 6 0 10 -4 10 -10z
m365 -57 c16 -32 31 -61 33 -64 3 -6 -175 -49 -202 -49 -11 0 -15 16 -18 66
-3 75 -2 77 96 93 28 5 53 9 56 10 3 0 19 -25 35 -56z m105 36 c0 -5 -4 -7
-10 -4 -5 3 -10 1 -10 -5 0 -6 -5 -8 -11 -4 -8 4 -7 9 2 15 19 12 29 11 29 -2z
m-353 -6 l41 -4 4 -70 c3 -64 1 -69 -17 -69 -24 0 -174 35 -181 43 -3 3 6 28
20 56 28 55 30 55 133 44z"/>
<path d="M988 1763 c7 -3 16 -2 19 1 4 3 -2 6 -13 5 -11 0 -14 -3 -6 -6z"/>
<path d="M1168 1763 c7 -3 16 -2 19 1 4 3 -2 6 -13 5 -11 0 -14 -3 -6 -6z"/>
<path d="M1190 1750 c-12 -8 -10 -10 8 -10 13 0 20 4 17 10 -7 12 -6 12 -25 0z"/>
<path d="M1081 1746 c2 -2 22 -6 44 -9 27 -4 35 -3 25 3 -14 9 -79 15 -69 6z"/>
<path d="M918 1733 c7 -3 16 -2 19 1 4 3 -2 6 -13 5 -11 0 -14 -3 -6 -6z"/>
<path d="M1228 1703 c7 -3 16 -2 19 1 4 3 -2 6 -13 5 -11 0 -14 -3 -6 -6z"/>
<path d="M1262 1696 c-23 -12 -23 -13 10 -13 18 0 27 2 20 5 -6 2 -10 8 -6 13
7 12 4 11 -24 -5z"/>
<path d="M850 1696 c0 -2 9 -6 20 -9 11 -3 18 -1 14 4 -5 9 -34 13 -34 5z"/>
<path d="M1115 1678 c-4 -9 -13 -14 -21 -11 -10 4 -12 0 -8 -11 4 -10 1 -16
-10 -17 -31 -3 -35 -4 -48 -18 -11 -12 -10 -13 4 -8 11 4 15 2 12 -7 -3 -7 1
-13 9 -13 8 0 14 7 13 16 0 9 6 16 14 16 8 0 18 8 22 17 4 11 13 15 23 12 8
-3 12 -10 9 -15 -3 -5 -9 -7 -13 -5 -4 3 -7 -10 -6 -29 0 -18 -3 -31 -7 -29
-4 3 -8 12 -8 20 0 8 -4 14 -10 14 -5 0 -9 -5 -7 -12 1 -7 -7 -13 -18 -15 -11
-1 -29 -3 -40 -5 -12 -2 -19 2 -17 10 1 6 -3 12 -9 12 -5 0 -7 6 -3 13 5 9 4
9 -6 0 -10 -10 -11 -15 -1 -27 6 -8 8 -16 4 -18 -4 -3 -3 -3 4 -2 6 2 13 -1
15 -5 5 -13 68 -24 68 -12 0 6 -7 8 -15 5 -8 -4 -15 -2 -15 4 0 18 42 21 67 5
13 -9 26 -13 30 -9 3 3 1 6 -6 6 -7 0 -11 7 -8 15 4 8 2 17 -3 20 -5 3 -7 12
-3 21 5 15 17 11 19 -7 1 -5 3 -11 4 -14 3 -6 7 -22 9 -35 0 -5 8 -6 18 -3 12
5 14 3 8 -7 -6 -10 -4 -10 10 -3 10 6 25 8 35 6 9 -2 23 3 31 13 13 15 12 16
-10 9 -16 -5 -26 -3 -32 6 -6 9 -12 10 -16 4 -12 -15 -42 -15 -36 1 2 7 11 10
18 8 15 -6 25 6 31 44 5 27 5 27 -14 7 -11 -11 -17 -24 -14 -29 3 -5 -3 -6
-12 -3 -10 4 -20 7 -22 7 -2 0 -4 8 -4 18 0 10 -6 27 -14 38 -13 17 -15 17
-21 2z"/>
<path d="M937 1673 c-4 -3 -7 -11 -7 -17 0 -6 5 -5 12 2 6 6 9 14 7 17 -3 3
-9 2 -12 -2z"/>
<path d="M1039 1661 l-24 -20 23 6 c23 5 38 20 29 29 -2 2 -15 -4 -28 -15z"/>
<path d="M880 1629 c0 -5 5 -7 10 -4 6 3 10 8 10 11 0 2 -4 4 -10 4 -5 0 -10
-5 -10 -11z"/>
<path d="M910 1620 c0 -5 5 -10 11 -10 5 0 7 5 4 10 -3 6 -8 10 -11 10 -2 0
-4 -4 -4 -10z"/>
<path d="M901 1584 c0 -11 3 -14 6 -6 3 7 2 16 -1 19 -3 4 -6 -2 -5 -13z"/>
<path d="M777 1570 c-7 -28 1 -46 14 -33 6 6 6 19 1 33 l-9 24 -6 -24z"/>
<path d="M886 1534 c-10 -37 -2 -39 11 -4 6 17 8 30 3 30 -4 0 -11 -12 -14
-26z"/>
<path d="M1296 1545 c4 -8 1 -15 -7 -15 -7 0 -9 -3 -6 -6 9 -9 38 16 31 27 -9
15 -24 10 -18 -6z"/>
<path d="M975 1541 c-3 -5 0 -13 6 -17 7 -4 9 -3 5 4 -3 5 0 13 6 15 9 4 10 6
1 6 -6 1 -14 -3 -18 -8z"/>
<path d="M1015 1529 c-4 -6 -5 -12 -2 -15 2 -3 7 2 10 11 7 17 1 20 -8 4z"/>
<path d="M1132 1510 c0 -19 2 -27 5 -17 2 9 2 25 0 35 -3 9 -5 1 -5 -18z"/>
<path d="M1352 1528 c-18 -18 -15 -38 6 -38 14 0 14 2 3 9 -12 8 -12 12 -2 25
16 19 10 21 -7 4z"/>
<path d="M1313 1515 c-3 -9 -3 -18 -1 -21 3 -3 8 4 11 16 6 23 -1 27 -10 5z"/>
<path d="M1200 1506 c0 -2 7 -9 15 -16 13 -11 14 -10 9 4 -5 14 -24 23 -24 12z"/>
<path d="M995 1490 c3 -5 8 -10 11 -10 2 0 4 5 4 10 0 6 -5 10 -11 10 -5 0 -7
-4 -4 -10z"/>
<path d="M742 1460 c0 -19 2 -27 5 -17 2 9 2 25 0 35 -3 9 -5 1 -5 -18z"/>
<path d="M771 1464 c0 -11 3 -14 6 -6 3 7 2 16 -1 19 -3 4 -6 -2 -5 -13z"/>
<path d="M1393 1473 c9 -2 25 -2 35 0 9 3 1 5 -18 5 -19 0 -27 -2 -17 -5z"/>
<path d="M1226 1462 c-3 -5 1 -9 9 -9 8 0 12 4 9 9 -3 4 -7 8 -9 8 -2 0 -6 -4
-9 -8z"/>
<path d="M960 1445 c7 -8 17 -12 22 -9 6 4 5 10 -3 15 -22 14 -33 10 -19 -6z"/>
<path d="M1350 1450 c0 -5 5 -10 11 -10 5 0 7 5 4 10 -3 6 -8 10 -11 10 -2 0
-4 -4 -4 -10z"/>
<path d="M1390 1445 c0 -5 5 -17 10 -25 5 -8 10 -10 10 -5 0 6 -5 17 -10 25
-5 8 -10 11 -10 5z"/>
<path d="M881 1404 c0 -11 3 -14 6 -6 3 7 2 16 -1 19 -3 4 -6 -2 -5 -13z"/>
<path d="M898 1395 c-3 -14 -1 -25 3 -25 5 0 9 11 9 25 0 14 -2 25 -4 25 -2 0
-6 -11 -8 -25z"/>
<path d="M1512 1380 c0 -14 2 -19 5 -12 2 6 2 18 0 25 -3 6 -5 1 -5 -13z"/>
<path d="M740 1380 c0 -5 5 -10 11 -10 5 0 8 -4 5 -9 -3 -4 4 -26 15 -47 11
-22 17 -29 14 -17 -3 12 -1 33 5 45 10 21 10 22 -3 5 -11 -13 -17 -15 -22 -6
-4 6 -3 14 3 18 7 4 4 11 -8 19 -12 7 -20 8 -20 2z"/>
<path d="M1249 1373 c-13 -16 -12 -17 4 -4 9 7 17 15 17 17 0 8 -8 3 -21 -13z"/>
<path d="M1417 1363 c-2 -5 -1 -17 3 -27 6 -19 7 -19 12 2 6 21 -6 40 -15 25z"/>
<path d="M1479 1361 c11 -7 11 -9 0 -13 -8 -3 -11 -9 -7 -13 9 -10 28 3 28 21
0 8 -8 14 -17 14 -14 0 -15 -2 -4 -9z"/>
<path d="M890 1330 c-9 -16 -8 -18 5 -14 8 4 15 12 15 20 0 20 -7 17 -20 -6z"/>
<path d="M1510 1335 c-7 -8 -19 -15 -28 -15 -8 0 -13 -3 -9 -6 9 -9 45 5 51
21 7 19 2 19 -14 0z"/>
<path d="M1500 1280 c-8 -5 -10 -10 -5 -10 6 0 17 5 25 10 8 5 11 10 5 10 -5
0 -17 -5 -25 -10z"/>
<path d="M820 1259 c0 -5 5 -7 10 -4 6 3 10 8 10 11 0 2 -4 4 -10 4 -5 0 -10
-5 -10 -11z"/>
<path d="M855 1250 c3 -5 8 -10 11 -10 2 0 4 5 4 10 0 6 -5 10 -11 10 -5 0 -7
-4 -4 -10z"/>
<path d="M1506 1248 c3 -4 9 -8 15 -8 5 0 9 4 9 8 0 5 -7 9 -15 9 -8 0 -12 -4
-9 -9z"/>
<path d="M1285 1220 c-10 -11 -15 -23 -12 -27 4 -3 7 -1 7 6 0 7 4 10 8 7 4
-2 13 4 20 15 16 25 0 25 -23 -1z"/>
<path d="M858 1223 c7 -3 16 -2 19 1 4 3 -2 6 -13 5 -11 0 -14 -3 -6 -6z"/>
<path d="M1006 1215 c-11 -8 -15 -15 -9 -15 6 0 16 7 23 15 16 19 11 19 -14 0z"/>
<path d="M1491 1214 c0 -11 3 -14 6 -6 3 7 2 16 -1 19 -3 4 -6 -2 -5 -13z"/>
<path d="M1510 1215 c0 -8 2 -15 4 -15 2 0 6 7 10 15 3 8 1 15 -4 15 -6 0 -10
-7 -10 -15z"/>
<path d="M884 1196 c11 -9 24 -16 30 -16 12 0 7 5 -24 19 -24 11 -24 11 -6 -3z"/>
<path d="M1232 1198 c2 -6 10 -14 16 -16 7 -2 10 2 6 12 -7 18 -28 22 -22 4z"/>
<path d="M1008 1183 c6 -2 18 -2 25 0 6 3 1 5 -13 5 -14 0 -19 -2 -12 -5z"/>
<path d="M930 1176 c0 -2 7 -7 16 -10 8 -3 12 -2 9 4 -6 10 -25 14 -25 6z"/>
<path d="M1486 1155 c7 -37 9 -39 29 -31 9 3 13 11 9 17 -5 8 -9 8 -14 -1 -5
-8 -11 -3 -19 16 l-11 29 6 -30z"/>
<path d="M1018 1153 c7 -3 16 -2 19 1 4 3 -2 6 -13 5 -11 0 -14 -3 -6 -6z"/>
<path d="M1520 1091 c0 -7 -4 -9 -10 -6 -5 3 -10 -2 -10 -12 0 -16 1 -16 17 0
9 9 14 20 10 23 -4 4 -7 2 -7 -5z"/>
<path d="M1473 1027 l-2 -32 13 25 c12 24 12 40 -2 40 -4 0 -8 -15 -9 -33z"/>
<path d="M1500 1005 c-7 -14 -10 -28 -7 -32 4 -3 7 0 7 7 0 7 7 18 17 25 9 7
12 14 6 18 -5 4 -16 -5 -23 -18z"/>
<path d="M1157 965 c3 -8 9 -12 14 -9 12 7 11 11 -5 17 -10 4 -13 1 -9 -8z"/>
<path d="M1127 946 c20 -26 27 -28 17 -3 -3 8 -12 18 -20 21 -11 4 -10 0 3
-18z"/>
<path d="M1455 960 c3 -5 8 -10 11 -10 2 0 4 5 4 10 0 6 -5 10 -11 10 -5 0 -7
-4 -4 -10z"/>
<path d="M1415 908 c-22 -14 -25 -18 -10 -16 20 3 51 26 44 32 -2 2 -17 -5
-34 -16z"/>
<path d="M1360 880 c0 -6 7 -10 15 -10 8 0 15 2 15 4 0 2 -7 6 -15 10 -8 3
-15 1 -15 -4z"/>
<path d="M1418 853 c6 -2 18 -2 25 0 6 3 1 5 -13 5 -14 0 -19 -2 -12 -5z"/>
<path d="M1399 1223 c-1 -5 -2 -15 -3 -23 0 -8 -12 -17 -26 -21 -14 -4 -19 -7
-12 -8 6 -1 11 -4 11 -8 -1 -5 0 -19 1 -33 2 -23 3 -23 9 5 3 18 15 34 29 40
12 5 22 13 22 18 0 4 -4 6 -9 3 -5 -3 -12 1 -15 10 -5 12 -2 15 9 10 9 -3 13
-2 10 4 -7 12 -24 13 -26 3z"/>
<path d="M1255 1110 c-17 -6 -16 -8 10 -14 16 -4 37 -17 47 -28 15 -17 18 -18
18 -5 0 9 -10 22 -22 28 -13 7 -25 15 -28 19 -3 4 -14 4 -25 0z"/>
<path d="M1330 1099 c0 -5 5 -7 10 -4 6 3 10 8 10 11 0 2 -4 4 -10 4 -5 0 -10
-5 -10 -11z"/>
<path d="M1259 1078 c-5 -11 -6 -68 -1 -64 6 6 11 66 5 66 -1 0 -3 -1 -4 -2z"/>
<path d="M1286 1042 c6 -4 10 -21 9 -39 -1 -18 2 -30 7 -27 5 3 6 14 3 24 -3
10 -1 22 6 25 8 6 7 10 -2 16 -17 11 -39 12 -23 1z"/>
<path d="M1240 990 c0 -5 5 -10 11 -10 6 0 9 -6 6 -14 -3 -8 1 -20 9 -26 10
-9 14 -9 14 -1 0 6 14 11 30 11 30 0 40 13 18 26 -7 4 -8 3 -4 -4 5 -8 0 -12
-13 -12 -10 0 -28 -3 -38 -6 -15 -6 -16 -4 -6 6 9 10 10 17 2 27 -13 15 -29
17 -29 3z"/>
<path d="M1050 916 c0 -2 11 -6 25 -8 13 -3 22 -1 19 3 -5 9 -44 13 -44 5z"/>
<path d="M970 900 c-18 -12 -2 -12 25 0 13 6 15 9 5 9 -8 0 -22 -4 -30 -9z"/>
<path d="M1060 890 c34 -11 60 -11 35 0 -11 5 -29 8 -40 8 -16 0 -15 -2 5 -8z"/>
<path d="M1003 881 c10 -4 18 -11 17 -16 -1 -5 4 -11 12 -13 9 -2 8 0 -2 7
-12 9 -10 11 10 12 l25 1 -25 8 c-32 10 -62 11 -37 1z"/>
<path d="M965 870 c3 -5 14 -10 23 -10 15 0 15 2 2 10 -20 13 -33 13 -25 0z"/>
<path d="M1080 860 c8 -5 22 -10 30 -10 13 0 13 1 0 10 -8 5 -22 10 -30 10
-13 0 -13 -1 0 -10z"/>
<path d="M967 843 c-14 -13 -6 -20 26 -26 17 -3 41 -8 52 -12 17 -6 18 -5 5 5
-12 9 -8 11 20 6 25 -4 31 -3 20 4 -12 8 -10 10 10 11 l25 1 -25 8 c-33 10
-61 11 -35 1 13 -5 0 -8 -40 -8 -43 0 -53 2 -35 7 22 7 22 8 4 9 -11 1 -24 -2
-27 -6z"/>
<path d="M968 803 c7 -3 16 -2 19 1 4 3 -2 6 -13 5 -11 0 -14 -3 -6 -6z"/>
<path d="M790 890 c-11 -8 -7 -9 15 -4 37 8 45 14 19 14 -10 0 -26 -5 -34 -10z"/>
<path d="M845 880 c-11 -5 -32 -9 -47 -9 -16 -1 -28 -6 -28 -12 0 -7 9 -9 23
-5 63 17 72 18 57 7 -18 -13 -3 -13 25 -1 20 9 20 9 0 10 -20 1 -20 1 0 10 13
5 14 9 5 9 -8 0 -24 -4 -35 -9z"/>
<path d="M903 866 c4 -10 -2 -16 -16 -20 -20 -4 -19 -4 2 -3 23 2 41 37 19 37
-6 0 -8 -6 -5 -14z"/>
<path d="M790 840 c-11 -7 -11 -10 -2 -10 7 0 11 -4 8 -9 -4 -5 10 -4 30 2 30
9 33 12 18 18 -26 10 -37 10 -54 -1z m37 -6 c-3 -3 -12 -4 -19 -1 -8 3 -5 6 6
6 11 1 17 -2 13 -5z"/>
<path d="M860 820 c-13 -9 -13 -10 0 -9 8 1 26 5 40 9 l25 8 -25 1 c-14 0 -32
-4 -40 -9z"/>
<path d="M890 800 c-8 -5 -10 -10 -5 -10 6 0 17 5 25 10 8 5 11 10 5 10 -5 0
-17 -5 -25 -10z"/>
<path d="M1558 1812 c-21 -4 -23 -30 -5 -52 15 -18 37 -24 37 -9 0 5 4 7 10 4
6 -3 7 1 4 9 -3 9 -10 14 -14 11 -5 -3 -10 5 -12 18 -2 15 -9 21 -20 19z m12
-34 c0 -16 -3 -19 -11 -11 -6 6 -8 16 -5 22 11 17 16 13 16 -11z"/>
<path d="M1477 1803 c-4 -3 3 -11 15 -17 12 -6 25 -22 28 -36 4 -16 8 -21 13
-13 12 19 -21 72 -44 73 -3 0 -9 -3 -12 -7z"/>
<path d="M1616 1789 c3 -6 13 -8 22 -4 9 3 13 3 9 -1 -4 -4 -2 -13 3 -20 6 -6
10 -16 9 -20 -1 -5 0 -18 1 -29 1 -15 4 -13 11 9 5 17 5 34 -1 40 -4 6 -8 15
-7 21 1 5 -10 11 -26 12 -16 1 -25 -2 -21 -8z"/>
<path d="M1791 1791 c-10 -6 -10 -10 -1 -16 13 -8 24 -1 19 14 -3 6 -10 7 -18
2z"/>
<path d="M373 1779 c-28 -10 -31 -23 -3 -14 11 4 20 2 20 -4 0 -6 5 -11 11
-11 5 0 8 4 5 9 -4 5 -1 11 6 13 8 3 8 6 -3 10 -7 3 -24 2 -36 -3z"/>
<path d="M612 1767 c-31 -33 -27 -42 4 -10 14 14 23 27 21 29 -2 2 -13 -6 -25
-19z"/>
<path d="M445 1770 c-13 -6 -15 -9 -5 -9 8 0 22 4 30 9 18 12 2 12 -25 0z"/>
<path d="M510 1771 c0 -5 -8 -11 -17 -13 -12 -2 -14 -6 -7 -10 6 -4 19 1 29
12 10 12 13 20 7 20 -7 0 -12 -4 -12 -9z"/>
<path d="M315 1761 c-3 -5 -1 -12 5 -16 5 -3 10 1 10 9 0 18 -6 21 -15 7z"/>
<path d="M1978 1763 c36 -7 26 -36 -20 -57 -23 -11 -37 -21 -31 -23 7 -3 22 1
35 8 13 8 25 13 28 12 3 -1 10 4 16 11 18 19 -1 56 -28 55 l-23 -2 23 -4z"/>
<path d="M638 1748 c5 -5 16 -8 23 -6 8 3 3 7 -10 11 -17 4 -21 3 -13 -5z"/>
<path d="M1808 1741 c9 -24 52 -50 52 -31 0 6 -4 10 -10 10 -5 0 -19 10 -30
23 l-21 22 9 -24z"/>
<path d="M1888 1733 c-26 -27 -12 -30 31 -5 36 20 39 28 11 28 -11 0 -30 -11
-42 -23z"/>
<path d="M286 1735 c-3 -8 -1 -15 4 -15 6 0 10 7 10 15 0 8 -2 15 -4 15 -2 0
-6 -7 -10 -15z"/>
<path d="M595 1715 c-16 -14 -25 -25 -19 -25 10 0 54 37 54 45 0 8 -3 6 -35
-20z"/>
<path d="M1590 1729 c0 -6 -5 -7 -12 -3 -8 5 -9 2 -4 -12 5 -10 11 -27 13 -36
3 -10 12 -18 19 -18 8 0 14 -5 14 -11 0 -6 -9 -8 -21 -4 -16 5 -19 4 -14 -5 4
-7 1 -16 -6 -21 -10 -7 -4 -8 16 -5 17 2 33 5 38 5 4 1 6 4 6 9 -3 19 3 22 21
12 12 -6 20 -7 20 -1 0 5 -6 12 -12 14 -10 4 -10 6 0 6 14 1 17 31 2 31 -6 0
-13 -7 -17 -16 -5 -15 -8 -15 -17 -2 -6 8 -20 17 -30 21 -10 4 -16 10 -13 13
3 3 15 1 26 -6 21 -11 27 -4 13 16 -10 15 -42 25 -42 13z"/>
<path d="M330 1705 c-8 -9 -9 -15 -2 -15 6 0 14 5 17 10 9 15 25 12 25 -6 0
-9 5 -12 12 -8 7 5 8 3 3 -5 -5 -9 -18 -11 -39 -7 -31 6 -31 6 -8 -10 17 -11
26 -13 36 -5 7 6 16 8 19 4 4 -3 7 3 7 13 0 40 -45 59 -70 29z"/>
<path d="M480 1690 c0 -5 5 -10 11 -10 5 0 7 5 4 10 -3 6 -8 10 -11 10 -2 0
-4 -4 -4 -10z"/>
<path d="M1962 1673 c-10 -11 -8 -13 13 -13 14 0 25 6 25 13 0 8 -6 14 -13 14
-7 0 -18 -6 -25 -14z"/>
<path d="M2030 1681 c0 -5 5 -13 10 -16 6 -3 10 -2 10 4 0 5 -4 13 -10 16 -5
3 -10 2 -10 -4z"/>
<path d="M523 1645 c-13 -20 -19 -37 -13 -40 6 -3 10 2 10 12 0 13 2 15 9 5 6
-11 10 -11 18 0 23 30 26 42 5 24 -26 -22 -30 -11 -5 16 9 10 12 18 7 18 -5 0
-19 -16 -31 -35z"/>
<path d="M283 1648 c19 -31 22 -42 7 -33 -6 3 -7 -1 -3 -10 3 -11 8 -13 12 -6
5 7 18 8 41 1 26 -7 38 -7 47 3 11 11 7 12 -22 9 -29 -4 -40 1 -67 29 -28 29
-30 30 -15 7z"/>
<path d="M2000 1631 c0 -5 -8 -12 -17 -14 -11 -3 -7 -5 10 -6 18 -1 27 4 27
14 0 8 -4 15 -10 15 -5 0 -10 -4 -10 -9z"/>
<path d="M2060 1621 c0 -6 4 -13 10 -16 6 -3 7 1 4 9 -7 18 -14 21 -14 7z"/>
<path d="M2018 1581 c-10 -19 -26 -31 -45 -34 -27 -4 -27 -4 -2 -6 27 -1 79
36 79 57 0 21 -14 13 -32 -17z"/>
<path d="M485 1590 c-3 -5 -1 -10 4 -10 6 0 11 5 11 10 0 6 -2 10 -4 10 -3 0
-8 -4 -11 -10z"/>
<path d="M216 1564 c-4 -14 -5 -28 -3 -31 3 -2 8 8 11 23 4 14 5 28 3 31 -3 2
-8 -8 -11 -23z"/>
<path d="M1928 1583 c6 -2 18 -2 25 0 6 3 1 5 -13 5 -14 0 -19 -2 -12 -5z"/>
<path d="M2081 1565 c-1 -21 6 -34 22 -44 21 -13 21 -13 5 5 -9 10 -18 30 -21
44 -4 23 -4 22 -6 -5z"/>
<path d="M260 1566 c0 -8 4 -17 8 -20 4 -2 8 4 8 15 0 10 -4 19 -8 19 -4 0 -8
-6 -8 -14z"/>
<path d="M320 1546 c0 -8 -12 -17 -27 -19 -23 -3 -22 -4 9 -6 32 -1 35 2 31
19 -6 23 -13 26 -13 6z"/>
<path d="M2045 1540 c-3 -5 1 -10 9 -10 9 0 16 5 16 10 0 6 -4 10 -9 10 -6 0
-13 -4 -16 -10z"/>
<path d="M1822 1520 c7 -10 14 -18 15 -16 6 6 -9 36 -18 36 -5 0 -4 -9 3 -20z"/>
<path d="M230 1520 c0 -8 4 -21 8 -28 12 -18 63 -31 87 -22 15 6 9 9 -25 11
-36 3 -47 9 -57 29 -7 14 -13 18 -13 10z"/>
<path d="M350 1500 c0 -5 7 -7 15 -4 8 4 15 8 15 10 0 2 -7 4 -15 4 -8 0 -15
-4 -15 -10z"/>
<path d="M1970 1495 c-30 -10 -32 -12 -13 -17 12 -3 27 -1 34 6 9 8 10 8 5 -1
-5 -10 -1 -11 17 -4 15 6 28 6 34 0 6 -6 22 -7 37 -3 35 8 29 13 -31 23 -31 5
-62 3 -83 -4z"/>
<path d="M660 1485 c0 -8 -4 -15 -10 -15 -5 0 -9 -3 -9 -7 3 -20 -2 -34 -11
-28 -5 3 -10 1 -10 -4 0 -6 5 -11 11 -11 8 0 7 -6 -2 -17 -11 -16 -11 -16 1
-5 8 7 16 17 16 23 1 5 2 14 3 19 0 6 8 10 17 8 10 -2 19 4 21 12 4 13 3 13
-6 0 -11 -15 -15 -8 -12 23 1 9 0 17 -3 17 -3 0 -6 -7 -6 -15z"/>
<path d="M1827 1469 c4 -13 8 -18 11 -10 2 7 -1 18 -6 23 -8 8 -9 4 -5 -13z"/>
<path d="M1889 1478 c-8 -27 -6 -47 4 -51 10 -4 12 3 9 24 -4 24 -10 37 -13
27z"/>
<path d="M446 1455 c-4 -11 -2 -14 7 -9 6 4 1 -4 -12 -16 -17 -17 -20 -25 -12
-28 8 -3 17 1 21 8 6 9 9 9 13 -1 4 -12 7 -12 18 0 11 10 11 15 1 18 -6 3 -10
8 -7 13 3 4 -1 13 -9 19 -10 9 -15 8 -20 -4z"/>
<path d="M1800 1445 c0 -7 8 -18 17 -24 14 -7 15 -12 4 -25 -7 -8 -10 -20 -6
-26 11 -17 23 -11 18 9 -4 16 -1 19 16 14 29 -7 26 11 -4 27 -14 7 -25 19 -25
27 0 7 -4 13 -10 13 -5 0 -10 -7 -10 -15z"/>
<path d="M651 1384 c0 -11 3 -14 6 -6 3 7 2 16 -1 19 -3 4 -6 -2 -5 -13z"/>
<path d="M450 1379 c0 -5 -5 -7 -12 -3 -6 4 -8 3 -4 -4 3 -6 1 -23 -4 -38 -6
-15 -8 -29 -6 -32 10 -9 36 27 30 41 -3 8 -1 18 5 22 14 8 14 25 1 25 -5 0
-10 -5 -10 -11z"/>
<path d="M1899 1372 c11 -8 13 -31 7 -118 -11 -171 -14 -197 -28 -205 -9 -6
-10 -11 -2 -19 21 -21 39 77 39 214 0 106 -3 130 -15 133 -12 4 -13 3 -1 -5z"/>
<path d="M1870 1355 c0 -8 4 -15 10 -15 5 0 7 7 4 15 -4 8 -8 15 -10 15 -2 0
-4 -7 -4 -15z"/>
<path d="M1824 1324 c9 -8 16 -20 16 -26 0 -6 3 -9 6 -5 10 10 -7 47 -22 47
-13 0 -13 -2 0 -16z"/>
<path d="M600 1323 c0 -4 5 -15 10 -23 8 -13 10 -13 10 2 0 9 -4 20 -10 23 -5
3 -10 3 -10 -2z"/>
<path d="M1576 1323 c-11 -11 -6 -23 9 -23 8 0 15 4 15 9 0 13 -16 22 -24 14z"/>
<path d="M1670 1296 c0 -2 7 -6 15 -10 8 -3 15 -1 15 4 0 6 -7 10 -15 10 -8 0
-15 -2 -15 -4z"/>
<path d="M1570 1280 c0 -5 5 -10 11 -10 5 0 7 5 4 10 -3 6 -8 10 -11 10 -2 0
-4 -4 -4 -10z"/>
<path d="M638 1263 c6 -2 12 -11 12 -19 0 -8 5 -14 11 -14 6 0 8 7 5 16 -3 9
-6 18 -6 20 0 2 -8 4 -17 3 -11 0 -13 -3 -5 -6z"/>
<path d="M1830 1245 c-8 -9 -8 -15 -2 -15 12 0 26 19 19 26 -2 2 -10 -2 -17
-11z"/>
<path d="M1780 1228 c0 -16 5 -28 10 -28 13 0 13 20 0 40 -8 12 -10 9 -10 -12z"/>
<path d="M1780 1170 c0 -5 5 -10 10 -10 6 0 10 5 10 10 0 6 -4 10 -10 10 -5 0
-10 -4 -10 -10z"/>
<path d="M1851 1164 c0 -11 3 -14 6 -6 3 7 2 16 -1 19 -3 4 -6 -2 -5 -13z"/>
<path d="M1870 1166 c0 -8 5 -18 10 -21 6 -3 10 3 10 14 0 12 -4 21 -10 21 -5
0 -10 -6 -10 -14z"/>
<path d="M695 1149 c-4 -6 -4 -13 -1 -16 3 -4 6 -1 6 6 0 8 8 11 20 8 11 -3
20 -1 20 4 0 13 -37 11 -45 -2z"/>
<path d="M458 1134 c-23 -23 7 -79 35 -68 16 6 12 40 -5 50 -6 4 -7 -2 -3 -17
5 -16 4 -21 -3 -14 -6 6 -12 21 -14 33 -1 13 -6 20 -10 16z"/>
<path d="M1581 1133 c0 -6 -4 -20 -7 -30 -5 -14 -4 -15 5 -7 7 7 11 20 8 30
-3 11 -5 14 -6 7z"/>
<path d="M1750 1110 c0 -5 5 -10 11 -10 5 0 7 5 4 10 -3 6 -8 10 -11 10 -2 0
-4 -4 -4 -10z"/>
<path d="M1846 1059 c-8 -42 0 -50 9 -9 4 17 5 34 2 36 -2 3 -7 -10 -11 -27z"/>
<path d="M508 1053 c7 -3 16 -2 19 1 4 3 -2 6 -13 5 -11 0 -14 -3 -6 -6z"/>
<path d="M460 1040 c0 -5 4 -10 9 -10 4 0 7 -13 5 -29 -2 -19 2 -31 11 -35 8
-3 15 -14 15 -24 0 -11 7 -25 16 -33 13 -11 15 -9 10 14 -3 15 -8 38 -11 52
-3 14 -12 25 -20 25 -18 0 -20 17 -3 22 8 3 4 9 -10 17 -14 7 -22 8 -22 1z"/>
<path d="M1660 1004 c0 -8 5 -12 10 -9 6 3 10 10 10 16 0 5 -4 9 -10 9 -5 0
-10 -7 -10 -16z"/>
<path d="M1802 992 c1 -19 6 -36 10 -38 11 -7 10 38 -2 56 -8 11 -10 7 -8 -18z"/>
<path d="M1582 963 c-13 -21 -20 -43 -17 -54 5 -15 3 -17 -11 -12 -12 4 -15 3
-10 -6 5 -7 13 -10 20 -8 13 5 38 -18 29 -27 -4 -3 -1 -6 5 -6 5 0 19 -3 29
-6 15 -6 15 -4 -4 14 -13 14 -20 30 -17 44 2 13 2 17 -2 11 -8 -17 -24 -17
-24 0 0 7 9 29 19 50 24 47 13 47 -17 0z"/>
<path d="M1860 995 c-1 -5 -2 -14 -1 -19 1 -5 -4 -6 -11 -4 -9 4 -14 -6 -15
-29 l-2 -35 20 38 c10 21 17 43 15 49 -3 6 -5 6 -6 0z"/>
<path d="M1678 979 c-3 -8 0 -22 6 -31 7 -12 6 -24 -2 -43 -7 -14 -9 -38 -6
-52 7 -25 5 -25 -35 -21 -22 2 -41 0 -41 -4 0 -5 4 -8 10 -8 5 0 7 -7 4 -15
-4 -10 0 -15 11 -15 11 0 15 5 11 15 -3 8 -1 15 4 15 6 0 10 -11 10 -25 0 -14
5 -25 11 -25 6 0 9 7 5 15 -3 10 1 15 12 16 11 0 13 2 4 6 -10 4 -8 11 9 29
12 13 17 24 11 24 -7 0 -12 5 -12 11 0 6 6 9 13 6 7 -3 21 1 30 8 21 15 12 47
-11 43 -11 -2 -20 9 -28 31 -7 21 -13 29 -16 20z m47 -79 c3 -6 -4 -10 -17
-10 -18 0 -20 2 -8 10 19 12 18 12 25 0z"/>
<path d="M650 957 c-8 -12 -13 -26 -12 -30 3 -11 14 -80 15 -98 1 -17 33 -23
42 -8 4 5 -1 19 -9 31 -9 12 -16 35 -16 51 0 15 -4 26 -9 22 -5 -3 -12 -1 -16
5 -3 5 -2 10 3 10 6 0 13 7 16 16 10 25 2 26 -14 1z"/>
<path d="M683 957 c-13 -30 -6 -47 20 -46 17 1 18 2 5 6 -10 3 -18 14 -18 26
0 18 2 19 10 7 8 -13 10 -13 10 2 0 26 -16 30 -27 5z"/>
<path d="M930 970 c0 -5 5 -10 11 -10 5 0 7 5 4 10 -3 6 -8 10 -11 10 -2 0 -4
-4 -4 -10z"/>
<path d="M430 919 c0 -5 5 -7 10 -4 6 3 10 8 10 11 0 2 -4 4 -10 4 -5 0 -10
-5 -10 -11z"/>
<path d="M554 896 c-3 -8 -1 -22 4 -31 7 -14 9 -11 10 14 1 33 -5 40 -14 17z"/>
<path d="M710 885 c7 -8 16 -12 21 -9 13 8 1 24 -18 24 -13 0 -13 -3 -3 -15z"/>
<path d="M1632 893 c-6 -2 -10 -9 -6 -14 8 -14 21 -11 28 6 6 15 1 17 -22 8z"/>
<path d="M590 861 c0 -5 -3 -16 -6 -25 -4 -11 0 -16 12 -17 14 0 15 -2 5 -6
-8 -3 -20 2 -28 12 -7 10 -15 16 -18 13 -11 -11 94 -88 120 -88 14 0 24 -4 21
-9 -3 -5 2 -8 11 -7 10 0 19 -7 21 -19 2 -15 1 -17 -6 -6 -6 7 -12 9 -15 4 -4
-6 4 -15 16 -20 20 -9 22 -8 21 20 -1 22 -11 39 -35 59 -34 29 -60 38 -40 15
14 -18 2 -30 -13 -14 -7 7 -21 31 -32 54 -18 39 -34 55 -34 34z"/>
<path d="M1783 850 c-3 -11 -9 -17 -14 -14 -5 3 -9 -1 -9 -9 0 -20 -85 -109
-94 -99 -4 4 -6 2 -4 -4 6 -20 -64 -72 -167 -124 -106 -53 -120 -57 -129 -37
-3 6 -3 1 0 -12 4 -14 2 -21 -3 -18 -6 4 -61 0 -124 -8 -134 -16 -230 -7 -337
32 -98 36 -101 36 -123 -20 -18 -46 -49 -89 -49 -69 0 5 -36 11 -79 14 -55 3
-88 10 -108 24 -15 10 -30 19 -33 19 -3 0 -11 4 -19 9 -9 6 -12 5 -7 -2 3 -6
1 -22 -5 -35 -17 -36 -75 -48 -252 -48 -92 0 -144 -4 -132 -9 11 -5 31 -9 45
-10 l25 -2 -25 -8 c-18 -5 -11 -7 27 -6 29 0 53 3 53 6 0 3 28 5 63 4 34 -1
79 1 100 6 40 9 48 -3 25 -39 -15 -25 5 -75 37 -89 31 -14 181 -35 203 -28 9
3 24 1 32 -5 12 -8 9 -9 -9 -4 -16 5 -21 4 -17 -4 8 -12 42 -11 62 1 6 4 75 8
153 10 77 1 137 5 131 8 -6 3 52 12 127 19 231 22 298 29 308 31 6 1 61 2 123
1 102 -1 112 -3 112 -19 0 -22 -30 -52 -51 -52 -8 -1 -3 -8 11 -16 14 -8 17
-13 8 -10 -10 3 -20 1 -24 -5 -4 -7 12 -8 45 -4 28 3 51 1 51 -4 0 -5 13 -11
29 -13 21 -3 28 -1 24 9 -3 9 0 11 10 7 21 -8 36 24 30 63 -3 18 -1 33 4 33
18 0 22 -13 12 -33 -8 -14 -8 -18 0 -12 8 5 10 -2 5 -22 -4 -15 -11 -30 -16
-31 -4 -2 -8 -9 -8 -15 0 -29 33 26 35 59 2 20 9 40 16 45 8 5 10 9 4 9 -5 0
-4 4 4 9 8 5 27 8 41 6 33 -4 180 -64 180 -74 0 -8 56 -42 67 -41 5 1 11 -9
15 -22 5 -20 6 -21 7 -3 1 23 -14 38 -72 74 -29 18 -35 26 -25 32 9 6 2 9 -20
9 -18 0 -31 4 -28 9 4 5 -4 7 -16 4 -17 -3 -19 -2 -9 5 9 7 0 12 -35 17 -27 5
-52 8 -57 7 -4 -1 0 14 8 34 21 51 19 72 -10 111 -18 23 -39 36 -71 44 -26 7
-41 15 -34 19 6 4 -38 6 -98 6 -91 -1 -109 1 -104 13 3 9 1 12 -6 7 -7 -4 -12
-2 -12 3 0 6 -4 11 -10 11 -5 0 -9 -6 -7 -12 1 -8 -7 -12 -21 -11 -13 2 -21
-1 -18 -5 2 -4 -4 -8 -15 -8 -10 0 -19 3 -19 6 0 7 82 44 97 43 6 0 9 7 6 16
-4 9 -3 13 1 9 4 -3 19 3 33 15 65 55 182 190 183 210 0 16 -22 6 -27 -13z
m-944 -293 c6 -8 8 -16 5 -20 -3 -3 3 -3 15 0 15 4 21 1 21 -12 0 -15 3 -15
15 -5 13 11 18 11 28 0 10 -10 8 -12 -6 -7 -11 4 -20 1 -23 -8 -3 -7 -12 -11
-20 -8 -8 3 -11 10 -8 15 4 6 -1 6 -13 -1 -31 -16 -61 -10 -55 11 2 10 8 16
12 13 5 -3 11 -1 15 5 3 5 1 10 -4 10 -6 0 -11 5 -11 10 0 14 16 12 29 -3z
m1018 -49 c28 -14 44 -29 45 -42 0 -12 2 -28 2 -36 4 -35 -65 -125 -82 -108
-8 8 -16 7 -28 -3 -12 -10 -15 -10 -10 -1 4 7 4 12 -1 11 -4 -1 -10 0 -13 1
-35 13 -209 32 -245 26 -16 -3 -64 -6 -105 -7 -41 -1 -87 -6 -102 -10 -18 -5
-28 -4 -28 3 0 7 -4 7 -12 1 -7 -6 -49 -13 -93 -17 -44 -3 -120 -10 -170 -16
-232 -24 -335 -21 -335 11 0 6 5 7 12 3 7 -4 8 -3 4 5 -4 6 0 18 8 27 9 9 13
21 9 27 -4 6 -9 3 -14 -9 -4 -11 -14 -26 -23 -33 -14 -12 -15 -10 -9 19 4 24
3 31 -5 26 -7 -4 -12 -18 -12 -32 0 -31 -20 -30 -43 2 -19 26 -16 61 4 48 8
-5 8 -9 -1 -14 -8 -5 -9 -10 -2 -14 6 -4 15 2 21 11 8 14 10 15 11 3 0 -10 3
-11 8 -4 4 6 14 13 23 16 13 5 16 2 12 -15 -4 -20 -3 -20 7 -4 6 9 18 17 27
17 12 0 14 -7 10 -32 -3 -18 -9 -42 -13 -53 -7 -18 -6 -18 9 -7 10 8 50 15
104 16 48 2 88 4 88 6 0 1 15 3 34 4 19 2 37 8 39 14 2 6 10 8 18 5 13 -5 13
-7 2 -15 -8 -5 -2 -6 17 -2 17 3 44 6 62 8 18 1 35 5 39 9 12 12 26 8 18 -5
-4 -7 3 -4 16 7 20 17 23 18 17 2 -6 -16 -5 -16 18 -1 20 13 25 14 25 3 0 -11
2 -11 9 0 11 17 54 23 44 7 -5 -7 -2 -7 8 0 24 19 69 26 69 12 0 -10 2 -10 9
0 4 7 22 14 39 14 46 1 66 28 59 80 -2 24 -3 37 0 30 4 -10 8 -10 19 -1 20 16
44 4 44 -23 0 -32 -27 -69 -45 -62 -8 4 -15 1 -15 -5 0 -14 30 -14 66 -1 14 6
31 7 38 2 16 -12 74 -14 81 -2 4 6 11 8 16 4 5 -3 7 -10 4 -15 -4 -5 -1 -9 4
-9 6 0 11 5 11 11 0 5 5 7 12 3 7 -4 27 -7 45 -6 18 2 33 -2 33 -7 0 -6 -8 -8
-17 -5 -15 5 -16 4 -3 -5 13 -10 13 -12 0 -21 -9 -6 -10 -10 -3 -10 7 0 16 8
22 17 8 14 12 15 25 4 9 -7 16 -10 16 -6 0 4 -8 14 -17 21 -17 12 -17 13 -1
14 9 0 20 -4 23 -10 12 -19 41 -10 58 20 14 22 15 30 5 30 -10 0 -10 2 0 8 10
7 8 12 -7 26 -10 9 -22 16 -27 15 -23 -4 -45 2 -39 11 3 6 -3 10 -14 10 -11 0
-23 5 -26 10 -4 6 -13 7 -23 1 -22 -11 -132 -13 -146 -2 -14 11 -48 11 -63 -1
-7 -5 -14 -5 -17 1 -4 6 -15 7 -29 2 -12 -5 -26 -9 -32 -10 -5 -1 -10 -10 -9
-21 0 -10 -3 -17 -8 -14 -4 3 -8 -11 -8 -30 0 -20 -5 -36 -11 -36 -7 0 -9 10
-7 25 3 14 1 25 -3 25 -5 0 -9 -12 -9 -26 0 -18 -4 -25 -14 -21 -7 3 -18 1
-24 -5 -8 -8 -13 -7 -16 3 -2 8 -7 21 -9 29 -3 8 -6 3 -6 -11 -1 -15 -8 -29
-16 -33 -12 -4 -15 4 -15 38 0 35 4 45 20 49 22 6 28 -8 8 -16 -8 -3 -7 -6 4
-6 9 -1 20 4 24 11 5 8 11 6 19 -6 12 -15 13 -15 18 4 3 13 10 18 21 14 9 -3
16 -2 16 3 0 5 -30 8 -67 6 -87 -4 -93 -5 -87 -15 3 -4 0 -8 -5 -8 -6 0 -11 3
-11 8 0 13 -63 10 -78 -4 -7 -8 -10 -14 -6 -14 3 0 2 -6 -4 -13 -6 -7 -7 -19
-3 -26 6 -9 10 -6 16 11 4 12 7 26 6 31 -1 4 2 7 6 8 5 0 16 2 25 4 10 2 21
-2 25 -8 3 -7 3 -9 -2 -5 -11 10 -47 -11 -40 -23 4 -5 1 -9 -6 -9 -7 0 -9 -3
-6 -7 4 -3 16 2 26 11 11 10 25 15 30 11 6 -3 11 -1 11 4 0 6 7 11 15 11 10 0
15 -11 15 -35 0 -29 -4 -35 -21 -35 -16 0 -20 5 -16 20 9 34 -12 32 -22 -2 -5
-18 -10 -25 -10 -15 -1 23 -28 22 -43 -3 -18 -28 -31 -25 -24 5 4 14 2 25 -4
25 -5 0 -10 -11 -10 -25 0 -14 -3 -25 -7 -25 -5 0 -18 -3 -31 -6 -22 -6 -23
-4 -20 27 2 23 9 35 21 37 23 5 23 -35 0 -41 -14 -4 -12 -5 5 -6 16 -1 22 5
22 20 0 11 10 30 23 41 15 14 17 18 5 14 -9 -3 -18 0 -20 6 -2 6 -11 4 -21 -6
-13 -13 -21 -15 -34 -7 -10 6 -13 11 -8 11 6 0 3 5 -5 10 -11 7 -22 2 -41 -16
-24 -23 -28 -24 -42 -10 -14 15 -16 14 -21 -2 -6 -19 -31 -23 -54 -8 -17 10
-19 8 -27 -29 -5 -22 -4 -26 4 -15 14 21 51 21 52 1 0 -10 4 -6 11 9 l11 25 6
-25 c7 -25 7 -25 13 -2 3 12 2 22 -3 22 -5 0 -9 5 -9 12 0 8 5 7 15 -3 14 -14
14 -19 -1 -55 -15 -34 -18 -37 -25 -19 -7 19 -8 19 -8 1 -1 -17 -16 -15 -16 2
0 14 -17 32 -28 32 -7 0 -6 -4 3 -10 13 -8 12 -10 -3 -10 -10 0 -15 -5 -12
-10 4 -6 11 -8 16 -5 5 4 9 1 9 -5 0 -6 -8 -10 -17 -8 -25 5 -40 52 -27 87 9
21 8 28 -2 28 -7 0 -10 -7 -6 -16 5 -14 4 -14 -12 -2 -16 13 -20 12 -40 -14
-17 -21 -22 -38 -19 -62 3 -20 0 -33 -6 -33 -6 0 -11 7 -11 15 0 20 -10 19
-27 -2 -14 -17 -14 -17 -8 2 16 44 17 55 6 55 -6 0 -11 5 -11 11 0 8 5 8 15
-1 11 -9 15 -9 15 -1 0 7 8 11 18 9 9 -2 17 3 17 11 0 8 -12 15 -30 16 -16 2
-24 1 -17 -2 6 -3 10 -9 6 -14 -3 -5 -13 -5 -24 1 -15 8 -18 7 -14 -3 4 -10
-2 -14 -18 -12 -37 4 -38 4 -38 20 0 8 -7 15 -16 15 -13 0 -14 -3 -5 -13 11
-14 6 -27 -11 -27 -4 0 -6 10 -4 23 3 19 9 22 57 24 30 1 72 7 94 12 23 6 83
13 135 16 198 12 463 40 481 51 5 3 68 7 141 10 73 3 134 7 136 8 7 8 140 -26
179 -46z m-302 -5 c-4 -10 -9 -33 -12 -50 -3 -18 -10 -33 -15 -33 -5 0 -6 17
-3 38 9 53 13 62 26 62 7 0 8 -7 4 -17z m35 -28 c-6 -27 -5 -35 6 -35 8 0 14
-4 14 -10 0 -5 -9 -10 -20 -10 -21 0 -26 30 -14 77 10 37 23 16 14 -22z
m-1052 15 c31 -19 41 -43 23 -55 -6 -3 -8 3 -6 14 2 14 -1 18 -11 14 -7 -3
-11 -10 -7 -17 3 -6 0 -5 -8 2 -12 11 -12 14 1 23 13 9 13 10 -1 6 -16 -5 -39
9 -39 25 0 13 12 9 48 -12z m1222 5 c0 -9 7 -15 17 -13 10 2 19 -4 21 -14 2
-13 -3 -18 -17 -18 -11 0 -22 8 -24 18 -4 14 -5 14 -6 1 0 -9 6 -22 14 -29 8
-7 15 -9 15 -4 0 5 4 3 9 -5 7 -10 11 -5 16 18 3 17 11 31 16 31 12 0 12 -17
-1 -25 -5 -3 -10 -15 -10 -26 0 -16 -4 -19 -22 -13 -13 3 -29 11 -35 16 -9 7
-13 7 -13 -1 0 -24 -29 -10 -32 17 -2 19 -8 27 -20 26 -18 -2 -23 7 -11 19 3
4 15 0 25 -10 11 -9 18 -11 18 -5 0 7 7 12 16 12 8 0 12 5 9 10 -3 6 -1 10 4
10 6 0 11 -7 11 -15z m-100 -14 c0 -19 -20 -61 -29 -61 -15 0 -22 30 -11 51
11 19 40 27 40 10z m-1160 -11 c0 -5 -6 -10 -12 -10 -7 0 -2 -6 12 -13 16 -9
24 -20 22 -32 -3 -15 -1 -17 11 -7 16 14 27 6 27 -19 0 -12 -5 -16 -15 -13 -8
4 -15 1 -15 -6 0 -6 5 -8 10 -5 6 3 10 1 10 -4 0 -6 -7 -11 -16 -11 -9 0 -14
7 -12 18 1 9 -2 17 -7 17 -5 0 -8 -8 -7 -19 2 -11 -1 -16 -7 -12 -6 4 -11 14
-11 22 0 8 -4 14 -10 14 -13 0 -13 -37 1 -45 6 -4 26 -7 44 -8 19 0 32 -4 30
-7 -2 -3 21 -5 50 -5 40 0 56 -4 64 -18 10 -16 7 -17 -46 -12 -32 4 -71 8 -88
11 -16 2 -34 4 -39 3 -5 0 -12 4 -15 10 -4 6 -17 12 -30 14 -32 5 -42 26 -25
52 8 12 11 25 7 30 -5 4 -3 5 4 2 6 -4 14 -1 17 5 3 7 4 -3 1 -22 -4 -34 -4
-35 5 -5 5 17 12 42 15 58 5 25 25 39 25 17z m126 -16 c-3 -9 -6 -20 -6 -26 0
-6 -9 -3 -20 7 -27 24 -25 35 6 35 20 0 25 -4 20 -16z m1072 -6 c-2 -13 -11
-24 -20 -26 -21 -4 -24 18 -6 36 19 19 30 14 26 -10z m172 11 c0 -6 -7 -8 -16
-5 -14 5 -15 4 -4 -9 7 -8 10 -22 6 -30 -7 -19 -36 -20 -36 0 0 10 6 12 18 8
15 -6 15 -5 4 10 -8 9 -11 21 -7 27 8 13 35 13 35 -1z m-792 -27 c2 -8 -5 -11
-20 -10 -18 3 -24 -2 -26 -24 -2 -20 1 -28 12 -28 9 0 16 5 16 10 0 6 -5 10
-11 10 -5 0 -7 5 -4 10 11 18 23 10 27 -18 3 -23 0 -28 -17 -27 -46 1 -58 32
-29 73 17 24 44 26 52 4z m-488 -2 c0 -5 -4 -10 -10 -10 -5 0 -10 5 -10 10 0
6 5 10 10 10 6 0 10 -4 10 -10z m270 -45 c7 -25 10 -48 7 -51 -3 -4 -10 9 -16
27 l-9 34 -1 -32 c-1 -18 -6 -33 -12 -33 -8 0 -9 11 -5 31 3 17 6 40 6 50 0
35 17 20 30 -26z m-290 -22 c-11 -17 -11 -17 -6 0 3 10 7 26 7 35 1 15 2 15 6
0 2 -10 -1 -25 -7 -35z m632 15 c-6 -6 -15 -8 -19 -4 -4 4 -1 11 7 16 19 12
27 3 12 -12z m-592 -34 c0 -2 -7 -4 -15 -4 -8 0 -15 4 -15 10 0 5 7 7 15 4 8
-4 15 -8 15 -10z m1088 -38 c-7 -8 -15 -12 -17 -11 -5 6 10 25 20 25 5 0 4 -6
-3 -14z m82 -5 c5 -11 10 -29 10 -40 0 -19 -6 -21 -65 -21 l-64 0 42 40 c47
45 62 48 77 21z"/>
<path d="M1288 503 c7 -3 16 -2 19 1 4 3 -2 6 -13 5 -11 0 -14 -3 -6 -6z"/>
<path d="M1106 475 c-11 -8 -17 -17 -14 -20 2 -3 13 4 23 15 21 23 18 25 -9 5z"/>
<path d="M1475 470 c-10 -30 5 -47 22 -25 7 11 13 25 13 32 0 21 -28 15 -35
-7z"/>
<path d="M1355 447 c-4 -10 -5 -21 -1 -24 10 -10 18 4 13 24 -4 17 -4 17 -12
0z"/>
<path d="M1265 440 c-3 -5 -1 -10 4 -10 6 0 11 5 11 10 0 6 -2 10 -4 10 -3 0
-8 -4 -11 -10z"/>
<path d="M1312 430 c0 -14 2 -19 5 -12 2 6 2 18 0 25 -3 6 -5 1 -5 -13z"/>
<path d="M1095 410 c-3 -5 -1 -10 4 -10 6 0 11 5 11 10 0 6 -2 10 -4 10 -3 0
-8 -4 -11 -10z"/>
<path d="M632 360 c0 -14 2 -19 5 -12 2 6 2 18 0 25 -3 6 -5 1 -5 -13z"/>
<path d="M1788 343 c7 -3 16 -2 19 1 4 3 -2 6 -13 5 -11 0 -14 -3 -6 -6z"/>
<path d="M1727 474 c-4 -4 -7 -14 -7 -23 0 -11 3 -12 11 -4 6 6 10 16 7 23 -2
6 -7 8 -11 4z"/>
<path d="M485 421 c-6 -11 9 -23 19 -14 9 9 7 23 -3 23 -6 0 -12 -4 -16 -9z"/>
<path d="M1736 285 c-11 -8 -15 -15 -9 -15 6 0 16 7 23 15 16 19 11 19 -14 0z"/>
<path d="M500 810 c-9 -6 -10 -10 -3 -10 6 0 15 5 18 10 8 12 4 12 -15 0z"/>
<path d="M1516 785 c-11 -8 -14 -15 -8 -15 7 0 12 -6 12 -14 0 -9 -7 -12 -20
-9 -11 3 -20 1 -20 -5 0 -6 21 -10 48 -9 26 0 41 2 34 5 -10 3 -10 7 -1 18 7
8 8 18 4 22 -4 4 -10 1 -12 -5 -8 -22 -25 -14 -18 7 7 24 6 24 -19 5z"/>
<path d="M1580 793 c0 -5 5 -15 10 -23 8 -12 10 -11 10 8 0 12 -4 22 -10 22
-5 0 -10 -3 -10 -7z"/>
<path d="M1333 766 c-13 -6 -23 -14 -23 -19 0 -4 9 -3 19 3 13 6 28 7 45 0 20
-7 24 -6 20 4 -7 19 -34 24 -61 12z"/>
<path d="M1130 760 c-13 -8 -12 -10 3 -10 9 0 17 5 17 10 0 12 -1 12 -20 0z"/>
<path d="M1075 749 c-10 -15 3 -25 16 -12 7 7 7 13 1 17 -6 3 -14 1 -17 -5z"/>
<path d="M1244 749 c-3 -6 -15 -9 -25 -6 -11 3 -19 1 -19 -4 0 -5 18 -8 39 -7
21 2 37 6 35 10 -2 3 2 9 8 11 7 3 3 6 -9 6 -12 1 -25 -4 -29 -10z"/>
<path d="M1010 728 c0 -12 24 -20 50 -16 17 2 14 5 -14 14 -20 6 -36 7 -36 2z"/>
<path d="M965 716 c-24 -10 -26 -13 -12 -19 10 -4 17 -17 17 -31 0 -20 -4 -24
-17 -19 -11 5 -8 -5 13 -32 16 -21 28 -41 26 -44 -2 -3 2 -7 10 -9 10 -3 10
-2 -1 6 -11 8 -11 10 0 14 11 4 11 9 -3 24 -11 12 -15 28 -11 42 3 12 0 28 -6
36 -10 11 -8 17 6 24 28 16 12 22 -22 8z"/>
<path d="M1100 715 c0 -8 4 -15 10 -15 5 0 7 7 4 15 -4 8 -8 15 -10 15 -2 0
-4 -7 -4 -15z"/>
<path d="M877 706 c-4 -10 -1 -13 8 -9 8 3 12 9 9 14 -7 12 -11 11 -17 -5z"/>
<path d="M1164 705 c-10 -8 -14 -15 -7 -15 19 0 43 11 43 21 0 13 -14 11 -36
-6z"/>
<path d="M1276 695 c-4 -16 -13 -33 -19 -37 -9 -6 -8 -8 1 -8 8 0 16 9 19 20
3 11 9 17 14 14 5 -3 16 -1 25 4 11 6 13 11 5 16 -6 4 -11 2 -11 -3 0 -18 -18
-12 -22 7 -3 12 -6 8 -12 -13z"/>
<path d="M1197 685 c-18 -25 -69 -44 -122 -46 l-30 -1 27 -10 c22 -8 38 -5 78
13 28 12 57 33 65 46 20 31 5 29 -18 -2z"/>
<path d="M1000 691 c0 -6 5 -13 10 -16 6 -3 10 1 10 9 0 9 -4 16 -10 16 -5 0
-10 -4 -10 -9z"/>
<path d="M1030 688 c0 -7 5 -20 10 -28 8 -12 10 -11 10 7 0 12 -4 25 -10 28
-5 3 -10 0 -10 -7z"/>
<path d="M1465 690 c-3 -6 1 -7 9 -4 18 7 21 14 7 14 -6 0 -13 -4 -16 -10z"/>
<path d="M1503 686 c-3 -5 -1 -6 5 -2 8 5 11 0 9 -15 -1 -12 4 -23 11 -25 7
-1 8 0 2 3 -15 7 19 32 44 33 11 0 16 3 13 7 -11 10 -78 10 -84 -1z"/>
<path d="M561 683 c-1 -7 -28 -14 -68 -18 -38 -3 -76 -10 -85 -15 -10 -6 -83
-11 -163 -12 -133 -2 -143 -3 -119 -16 22 -12 53 -13 145 -8 65 3 124 8 131
10 7 3 31 7 53 10 22 3 69 10 105 16 36 5 69 10 73 10 5 0 5 5 1 11 -3 6 -19
9 -35 5 -17 -3 -29 -1 -33 7 -3 9 -5 9 -5 0z"/>
<path d="M908 683 c6 -2 18 -2 25 0 6 3 1 5 -13 5 -14 0 -19 -2 -12 -5z"/>
<path d="M1113 683 c-15 -5 -17 -23 -4 -23 5 0 11 7 15 15 3 8 4 15 3 14 -1 0
-8 -3 -14 -6z"/>
<path d="M1350 676 c0 -2 14 -13 32 -24 30 -19 64 -20 52 -1 -3 5 0 9 5 9 6 0
11 5 11 12 0 6 -7 5 -18 -5 -14 -13 -21 -14 -30 -5 -7 7 -12 9 -12 5 0 -4 -9
-3 -20 3 -11 6 -20 9 -20 6z"/>
<path d="M1325 660 c3 -5 8 -10 11 -10 2 0 4 5 4 10 0 6 -5 10 -11 10 -5 0 -7
-4 -4 -10z"/>
<path d="M865 640 c3 -5 10 -10 16 -10 5 0 9 5 9 10 0 6 -7 10 -16 10 -8 0
-12 -4 -9 -10z"/>
<path d="M1361 634 c0 -11 3 -14 6 -6 3 7 2 16 -1 19 -3 4 -6 -2 -5 -13z"/>
<path d="M837 629 c7 -7 15 -10 18 -7 3 3 -2 9 -12 12 -14 6 -15 5 -6 -5z"/>
<path d="M910 613 c0 -4 5 -15 10 -23 8 -13 10 -13 10 2 0 9 -4 20 -10 23 -5
3 -10 3 -10 -2z"/>
<path d="M99 597 c6 -8 7 -17 3 -22 -4 -4 0 -5 8 -3 8 3 23 -1 33 -10 10 -9
17 -11 17 -4 0 6 7 9 16 5 11 -4 12 -8 4 -13 -6 -4 8 -10 32 -14 40 -7 42 -8
24 -22 -11 -8 -28 -12 -38 -8 -10 3 -20 0 -23 -8 -4 -9 -18 -12 -47 -10 -30 3
-39 1 -33 -8 12 -19 93 -7 156 23 l54 25 -28 11 c-16 6 -31 11 -35 11 -11 0
-122 46 -129 54 -12 12 -25 6 -14 -7z"/>
<path d="M1180 561 l-25 -7 26 -5 c17 -4 26 -1 26 8 0 7 -1 13 -1 12 -1 -1
-12 -4 -26 -8z"/>
<path d="M1110 541 c0 -5 9 -7 20 -4 11 3 20 7 20 9 0 2 -9 4 -20 4 -11 0 -20
-4 -20 -9z"/>
<path d="M730 530 c0 -5 5 -10 10 -10 6 0 10 5 10 10 0 6 -4 10 -10 10 -5 0
-10 -4 -10 -10z"/>
<path d="M200 520 c0 -5 5 -10 10 -10 6 0 10 5 10 10 0 6 -4 10 -10 10 -5 0
-10 -4 -10 -10z"/>
<path d="M688 513 c6 -2 18 -2 25 0 6 3 1 5 -13 5 -14 0 -19 -2 -12 -5z"/>
<path d="M295 500 c-19 -8 -19 -9 3 -9 12 -1 22 4 22 9 0 6 -1 10 -2 9 -2 0
-12 -4 -23 -9z"/>
<path d="M1938 253 c6 -2 18 -2 25 0 6 3 1 5 -13 5 -14 0 -19 -2 -12 -5z"/>
<path d="M1614 199 c-3 -5 1 -9 9 -9 8 0 22 -9 31 -19 10 -11 24 -17 31 -15 7
3 16 1 20 -5 3 -6 16 -11 28 -11 12 0 29 -5 37 -10 11 -8 7 -9 -14 -4 -22 5
-27 4 -21 -5 5 -8 19 -11 40 -7 18 4 45 1 61 -5 27 -10 28 -12 9 -20 -18 -8
-17 -9 4 -5 13 3 34 0 45 -7 12 -6 26 -12 31 -13 21 -3 75 -41 68 -47 -12 -13
12 -6 30 7 14 11 17 24 14 56 -3 34 -13 51 -49 87 -28 28 -50 43 -58 38 -8 -5
0 -17 24 -37 42 -34 66 -76 66 -113 0 -31 -4 -31 -37 -1 -28 26 -54 38 -183
86 -47 17 -106 40 -132 50 -27 10 -50 14 -54 9z"/>
<path d="M1970 204 c0 -14 32 -35 48 -31 16 4 16 5 0 6 -10 0 -18 6 -18 12 0
5 4 7 10 4 5 -3 33 -8 62 -10 67 -5 67 -5 43 -15 -15 -7 -16 -9 -4 -9 9 -1 22
5 28 13 10 12 6 17 -26 25 -40 11 -143 15 -143 5z"/>
<path d="M1925 139 c-11 -16 -1 -19 13 -3 7 8 8 14 3 14 -5 0 -13 -5 -16 -11z"/>
</g>
</svg>
